<?xml version="1.0" encoding="UTF-8" standalone="no"?>
<!-- Created with Inkscape (http://www.inkscape.org/) -->

<svg
   xmlns:dc="http://purl.org/dc/elements/1.1/"
   xmlns:cc="http://creativecommons.org/ns#"
   xmlns:rdf="http://www.w3.org/1999/02/22-rdf-syntax-ns#"
   xmlns:svg="http://www.w3.org/2000/svg"
   xmlns="http://www.w3.org/2000/svg"
   version="1.2"
   width="550.82947"
   height="376.01987"
   id="svg2">
  <defs
     id="defs4">
    <linearGradient
       id="linearGradient15028">
      <stop
         id="stop15030"
         style="stop-color:#000000;stop-opacity:1"
         offset="0" />
    </linearGradient>
  </defs>
  <metadata
     id="metadata7">
    <rdf:RDF>
      <cc:Work
         rdf:about="">
        <dc:format>image/svg+xml</dc:format>
        <dc:type
           rdf:resource="http://purl.org/dc/dcmitype/StillImage" />
        <dc:title></dc:title>
      </cc:Work>
    </rdf:RDF>
  </metadata>
  <g
     transform="translate(0,-308.26766)"
     id="layer4" />
  <g
     transform="translate(0,-308.26766)"
     id="layer3">
    <path
       d="m 0,605.51864 c 0.07066,-0.089 0.187186,-0.0739 0.259319,-0.12685 0.06544,-0.0479 0.158763,-0.20448 0.259322,-0.25366 0.106117,-0.0519 0.22019,-0.0559 0.316944,-0.12686 0.108801,-0.0798 0.298003,0.0701 0.374572,-0.0423 0.04238,-0.0622 0.589046,0.0502 0.691521,0 0.100645,-0.0493 0.724323,-0.0787 0.77796,0 0.04582,0.0672 0.921089,0.55031 1.037277,0.46507 0.125513,-0.0921 0.209098,-0.26454 0.288137,-0.38051 0.07426,-0.10898 0.2470567,-0.22355 0.3457577,-0.29595 0.101698,-0.0746 0.162722,-0.24375 0.259319,-0.33823 0.234051,-0.22897 0.389052,-0.36999 0.633894,-0.54964 0.03834,-0.0282 0.03658,-0.11141 0.05763,-0.12684 0.04732,-0.0347 0.150046,-0.0171 0.201693,-0.0423 0.120194,-0.0588 0.340992,-0.16215 0.432199,-0.29596 0.10321,-0.15144 0.09763,-0.4815 0.201693,-0.63418 0.175517,0.0294 0.349031,-0.12926 0.461015,-0.21141 0.0063,-0.004 0.784039,-0.0166 0.80677,0 0.09206,0.0676 0.168272,0.12458 0.259323,0.16913 0.2181,0.10667 0.518838,-0.0139 0.72033,0.0846 0.03567,0.0174 0.242364,0.11025 0.259319,0.12685 0.05059,0.0494 0.181711,0.31435 0.230508,0.33823 0.17056,0.0834 0.305953,0.23754 0.403387,0.38051 0.07485,0.10984 0.676911,0.0633 0.720331,0.0846 0.07172,0.035 0.1336083,0.1358 0.2016933,0.16912 0.119792,0.0585 0.244065,0.10528 0.374572,0.16911 0.282271,0.13807 0.658287,-0.0859 0.950843,0 0.0949,0.0279 0.136934,0.0846 0.230505,0.0846 0.639585,-0.37039 1.368545,-0.61343 1.642358,0.59191 0.02999,0.13196 0.0192,-0.0142 0.05763,0.0423 0.04625,0.0679 0.06549,0.26522 0.11525,0.33824 0.03769,0.0553 0.08738,0.0873 0.115254,0.16912 l 0.115254,0.63419 1.988117,0 c 0.147005,-0.29324 0.215309,-0.52733 0.374572,-0.76103 0.01804,-0.0265 0.05646,0.002 0.08644,-0.0423 0.01625,-0.0238 0.08412,-0.1674 0.08644,-0.16911 0.03942,-0.029 0.172172,-0.0413 0.201694,-0.0846 0.02579,-0.0378 0.01798,-0.13565 0.08644,-0.1691 0.01823,-0.009 0.04404,0.0198 0.05763,0 0.02718,-0.0399 -0.01212,-0.11565 0,-0.16912 0.09034,-0.39772 0.04864,-1.01141 0.403386,-1.14155 0.09514,-0.0349 0.2416,-0.01 0.288133,0.12684 0.02881,0.0846 -0.05763,0 0,0.12684 0.03933,0.0865 0.212599,0.31348 0.316947,0.2114 0.08723,0.10432 0.04956,-0.11501 0.05763,-0.12684 0.0068,-0.01 0.0192,0 0.02881,0 0.0192,-0.0142 0.04244,-0.0201 0.05763,-0.0423 0.113049,-0.16589 0.122787,-0.14895 0.201693,-0.38051 0.0061,-0.0176 0.220451,0.0571 0.230508,0.0423 l 0,-6.51101 10.516859,0 0,5.79227 c 0.147996,0.23131 0.563845,0.13267 0.633891,0.33824 0.05115,0.15013 0.09682,0.31119 0.172876,0.42278 0.07706,0.11308 0.07132,0.28486 0.201695,0.38052 0.20047,0.14707 0.750385,-0.14707 0.95084,0 0.04857,0.0356 0.05577,0.0977 0.115254,0.12683 0.08131,0.0398 0.131318,-0.009 0.20169,0.0423 0.08984,0.066 0.118757,0.17426 0.172881,0.25368 0.10191,0.14954 0.629311,0.16911 0.806773,0.16911 0.307339,0 0.614688,0 0.922022,0 0.121149,0 0.377802,-0.004 0.316948,0.0846 -0.0096,0.0142 -0.01922,-0.0282 -0.0288,-0.0423 0.166137,-0.10284 0.115184,-0.33813 0.201695,-0.46507 0.103351,-0.15166 0.394812,-0.072 0.432202,-0.12684 0.041,-0.0602 0.07373,-0.15049 0.115249,-0.2114 0.115214,-0.16905 -0.182732,-1.46531 -0.08644,-1.6066 0.124689,-0.183 0.514955,-0.25548 0.691519,-0.16912 0.151389,0.074 0.384762,0.30506 0.57627,0.21139 0.05561,-0.0273 0.0165,-0.15105 0.05763,-0.21139 0.0274,-0.0403 0.264666,-0.2871 0.316944,-0.33823 0.09889,-0.0968 0.223448,0.0263 0.316948,-0.0423 0.07677,-0.0563 0.522211,-0.25368 0.605079,-0.25368 0.154249,0.19202 0.388044,-0.11696 0.547451,0 0.05038,0.0369 0.119992,0.17142 0.201695,0.2114 0.154093,0.0754 0.372137,-0.0229 0.518637,0.0846 0.05479,0.0402 0.14315,0.14048 0.201695,0.16911 0.06127,0.0299 0.136114,0.0612 0.172882,0.16913 0.08522,0.25005 -0.0255,0.93504 0.08644,1.09925 0.07774,0.11405 0.215625,0.39142 0.345757,0.29596 0.208725,-0.15313 0.488444,-0.15434 0.691519,-0.25367 0.142496,-0.0697 0.105313,-0.47893 0.201694,-0.54965 0.0915,-0.0671 0.04431,-0.10729 0.115254,-0.21139 0.148519,-0.21792 0.375224,-0.25367 0.605079,-0.25367 0.07683,0.0142 0.153677,0.0282 0.230508,0.0423 0.0096,0 0.02449,-0.0127 0.0288,0 0.03271,0.096 -0.003,0.24481 0.0288,0.33823 0.110482,0.32424 0.221907,0.45875 0.461011,0.63419 0.249622,0.18315 0.58173,-0.55765 0.720333,-0.76103 0.06489,-0.0952 0.163441,-0.113 0.230508,-0.21139 0.08834,-0.12964 0.318153,-0.12773 0.432197,-0.2114 0.137239,-0.10069 0.69583,-0.44077 0.893213,-0.29595 0.264666,0.19416 0.425027,0.25367 0.605079,0.25367 l 0,-5.79227 8.960938,0 0,6.04595 c 0.05763,0.0282 0.115254,0.0564 0.172881,0.0845 0.0288,0 0.05849,-0.0103 0.08644,0 0.0394,0.0144 0.0435,0.0639 0.05763,0.0846 0.03854,0.0566 0.722982,-0.0413 0.835587,0 0.136138,0.0499 0.227151,0.20892 0.345757,0.29596 0.26321,0.19311 0.587861,0.27069 0.806773,0.5919 0.336077,0.61231 0.759001,0.50735 1.267784,0.50735 0.106352,0 0.228375,-0.0226 0.316948,0.0423 0.06307,0.0462 0.03452,0.10139 0.05763,0.16911 0.01857,0.0546 0.145262,0.13034 0.172876,0.2114 0.07142,0.20959 0.07083,0.52672 0.201695,0.71875 0.01922,0.0282 0.06724,0.0142 0.08644,0.0423 0.0053,0.008 0.02349,0.11905 0.0288,0.12685 0.07801,0.11444 0.191206,0.22483 0.288135,0.29595 0.06969,0.0511 0.170432,0.0809 0.230508,0.16912 0.01255,0.0183 0.04521,0.14181 0.05762,0.16911 0.04808,0.10582 0.134358,0.0983 0.172881,0.2114 0.03548,0.10413 -0.08363,-0.0383 0.0288,0.12683 0.09134,0.13403 0.995792,0.2035 1.152534,0.12684 0.08817,-0.0431 0.236886,-0.0681 0.316944,-0.12684 0.06598,-0.0484 0.05777,-0.12683 0.144067,-0.12683 0.313447,0.0714 0.360501,-0.10619 0.518639,-0.33824 0.01887,-0.0277 0.06659,-0.0263 0.08644,-0.0846 0.02971,-0.0872 -0.09088,-0.0179 0.05763,-0.12683 0.06361,-0.0467 0.135582,-0.0298 0.172876,-0.0846 0.121983,-0.179 0.229605,0.42368 0.48983,0.16912 0.159327,-0.15587 0.229414,-0.50629 0.403383,-0.67647 0.05486,-0.0536 0.196206,-0.14597 0.259327,-0.16912 0.08233,-0.0302 0.213447,0.0548 0.288131,0 0.08056,-0.0591 0.685336,-0.17367 0.749146,-0.12684 0.04777,0.0351 0.05377,0.1212 0.08644,0.16912 0.181853,0.26685 0.305999,0.46507 0.605078,0.46507 0.483894,0.46122 0.990037,0.76103 1.613548,0.76103 0.05336,0 0.15625,0.0334 0.201691,0 0.09131,-0.067 0.131905,-0.17571 0.172878,-0.29596 0.08643,-0.25363 -0.156914,-0.52164 -0.201695,-0.71874 -0.123781,-0.54492 0.517617,-1.56434 0.8644,-1.56434 0.199277,-0.23285 0.45708,-0.36318 0.547453,-0.76102 0.02753,-0.12115 0.002,-0.26286 0.0288,-0.38052 0.03996,-0.17583 0.426939,-0.74559 0.518637,-1.0147 0.03166,-0.0929 0.07003,-0.49532 0.08644,-0.50736 0.04505,-0.0331 0.08719,-0.10596 0.144063,-0.12683 0.228797,-0.0839 0.206681,0.12196 0.461013,-0.12684 0.01535,-0.015 0.110226,-0.0349 0.115256,-0.0423 0.01355,-0.0199 -0.006,-0.0578 0,-0.0846 0.02428,-0.10704 0.09623,-0.18348 0.144068,-0.25367 0.05712,-0.0838 0.116834,-0.50851 0.230506,-0.59191 0.04612,-0.0338 0.123447,0.0242 0.172879,0 0.326181,-0.15955 0.386761,0.26262 0.662703,0.46508 0.06048,0.0444 0.14349,0.0418 0.201696,0.0846 0.155992,0.11445 0.597113,-0.006 0.720332,-0.12684 0.103856,-0.1016 0.383361,0.0423 0.489825,0.0423 0.04877,0.0747 0.240256,-0.0375 0.316946,0 0.05616,0.0275 0.09017,0.0873 0.144063,0.12684 0.06363,0.0467 0.190144,0.0507 0.259328,0.0846 0.03656,0.018 0.930489,-0.0274 0.950832,-0.0423 0.111149,-0.0815 0.443814,-0.10707 0.576267,-0.0423 0.12016,0.0588 0.206376,0.39424 0.259324,0.54964 0.05986,0.17564 0.401876,0.3783 0.489825,0.50734 0.04816,0.0707 0.166595,0.19295 0.201695,0.29596 0.03044,0.0894 0.06575,0.2656 0.115251,0.33824 0.02846,0.0417 0.09425,0.0538 0.115255,0.0846 0.04802,0.0564 0.108318,0.0957 0.144063,0.16912 0.0167,0.0344 -0.007,0.0858 0,0.12682 0.02161,0.1268 0.400536,0.51016 0.48983,0.4228 0.06177,-0.0604 0.0043,-0.18272 0.0288,-0.25368 0.01728,-0.0507 0.06915,-0.0761 0.08644,-0.12683 0.09693,-0.28447 0.142596,-0.9215 0.201691,-1.26838 0.04623,-0.27133 0.334838,-0.37472 0.403385,-0.67646 0.03346,-0.14729 -0.0058,-0.32551 0.05763,-0.46508 0.08308,-0.18286 0.714209,-0.12684 0.893211,-0.12684 0.141358,0 0.286129,-0.0831 0.403386,-0.16911 0.207643,-0.15236 0.660902,0.12416 0.777959,0.29595 0.06107,0.0896 0.639087,-0.12303 0.749148,-0.0423 0.08981,0.0659 0.201424,0.33744 0.259319,0.50735 0.223995,0.68349 1.121435,0.0389 1.411851,0.46507 0.07092,0.10405 0.137629,0.65757 0.201691,0.8456 0.03093,0.0907 0.03146,0.002 0.08644,0.0422 0.02239,0.0164 0.105234,0.35661 0.172883,0.4228 0.03262,0.0319 0.127958,0.0186 0.144067,0.0422 0.101414,0.1488 0.131056,0.40781 0.17288,0.59192 0.02568,0.11304 0.166421,0.15964 0.20169,0.21139 0.02301,0.0338 0.109846,-0.0167 0.144067,0 0.34551,0.169 0.420506,-0.12684 0.662708,-0.12684 l 143.864837,-15.77017 0,-3.21323 2.33388,0 0,-0.88786 0.83558,0 0,-0.59192 2.161,0 0.8644,0.71876 0,0.97242 0.69152,0.42279 0,4.73528 12.93718,0 0,-2.2408 0.83558,-1.56434 1.29659,-0.0846 0.48983,-0.80331 -1.23898,0 0,-2.53675 0.72034,-0.93016 0.0288,-0.80329 -0.60719,-0.077 -0.53879,-0.30936 -0.32796,-0.30936 -0.28109,-0.41248 0,-0.48124 0.21082,0 0.35139,0.275 0.25767,-0.41249 0.65592,-0.85933 0.5622,-0.61871 0.58564,-0.54998 0.86675,-0.37811 0.4685,-0.17187 0.0235,-0.61872 0.32795,-0.0344 0.39823,0.27499 0.6325,0 0.84331,-0.44685 0.74961,-0.44686 0.63249,-0.24061 1.33524,-0.0687 -0.0235,-0.99683 14.03185,0 0.0235,-0.68747 1.2884,-0.2406 3.23271,0 2.83448,-0.92809 -0.70276,-1.0312 0.67933,0 0,-2.0624 2.4831,0 -0.0425,-0.2331 -0.68363,-1.00435 -0.25768,-0.37811 0,-0.5156 0.84332,0 -0.2811,-0.51559 0.3748,0 -0.0235,-3.05924 3.13902,-1.89054 0,-0.54997 1.40553,-0.92808 -0.0235,-0.75622 1.56951,0 0.44509,-0.5156 0.67933,-0.0344 3.25614,0.99681 1.17127,0.68748 25.69772,0 56.17422,-4.19356 1.45238,0 -0.0937,-0.5156 -0.25767,-0.30936 -0.0469,-0.41247 1.05415,-0.10313 0.1874,-0.44685 0,-4.29668 6.5357,-3.57484 2.52994,0.1375 3.84178,-2.578 3.74809,0 12.39205,-1.61555 0.11712,-13.81811 -0.11712,-2.85298 -0.23425,-2.68113 0.3748,-3.50609 3.44355,0.17187 0.79645,0.85934 0.70278,0.96245 0.1874,0.82496 0,0.92808 -0.9136,2.95612 0.23425,17.49605 1.49923,0.48123 4.28685,1.95928 2.17857,-0.17187 -0.77302,1.1687 0,1.27182 0.60906,0.0687 0.11712,-0.2406 1.05417,0 0,-0.61873 0.77302,0 0.14053,0.17187 0,0.79058 2.366,0.3781 0,-3.23109 -0.39823,0 0.0703,-0.82496 0.21083,-0.96245 0.37479,-1.09996 0.56219,-0.99683 1.45239,-1.09994 0.56223,-0.24062 0.0233,-2.92174 -0.14053,0 -0.0233,-0.61871 0.14053,-0.58435 0.0233,-1.13432 0.14057,0 0,1.20306 0.16396,0.34374 0.0703,0.79058 -0.14057,0 0.0233,2.61239 0.42166,0.41248 0.98386,0.48122 0.70279,0.61872 0.35137,0.58435 0.2811,0.92809 0.28112,0.85933 0.46849,0.3781 0.49194,0.37812 0,0.27498 -0.67933,0 0,6.3247 2.71733,0 2.15517,0 0.89015,-1.61555 6.30146,0.0344 2.27224,7.32154 2.8345,-0.10311 0,-1.03121 1.63978,-0.0344 0.70276,0.65309 1.68664,-2.26864 0,-9.79641 0.11512,0.0452 0,9.57929 1.14987,-1.64994 5.71579,0.37812 0.0236,-0.96246 0.37479,0 0,-3.26547 0.19622,0 0,0.51131 2.47428,0 0,-2.9862 -0.574,-1.45885 -0.71438,0 -0.21083,-0.32856 0,-0.48122 0.33966,-0.49842 0,-3.31704 6.03205,-0.51559 0,-11.06823 -0.25766,-0.20625 -0.16399,-0.13749 -0.23423,-0.20624 -0.0703,-0.10312 0,-0.5156 0.1874,-0.20624 0.30453,-0.24061 0.2577,-0.82497 0.1874,-1.47806 0.1874,-0.79058 0.42166,-1.16869 0.72619,-1.16871 0.70275,-0.96245 1.10102,-0.89371 0.81989,-0.5156 0.3748,-0.34373 0.2577,-0.48122 0,-1.23745 0.16397,-0.58435 0.21082,-0.41248 0,-0.27498 -0.16396,-0.0687 -0.21083,-0.24063 -0.0515,-0.37867 0.0632,-0.36035 0.1757,-0.30936 0.16396,-0.20624 -0.0237,-0.7734 -0.14053,-0.13749 -0.0703,-0.17187 -0.49192,-0.0344 -0.18739,0.17187 -0.16401,0.13748 -0.082,0.17187 -0.18743,0.0687 -0.15223,-0.0171 0,-0.22342 0.11709,-0.0171 -0.0117,-0.51561 -0.0703,-0.0516 -0.14053,-0.0687 0,-0.22343 0.44506,0 0.11713,-0.1203 0.30453,-0.0688 0.0703,0.0688 0.0468,0.2406 0.40992,0 0.11714,-0.22342 0.0236,-1.56399 -0.17565,-0.20625 -1.34699,0 0,-0.20624 0.21083,-0.0171 0,-1.46087 1.26499,0 0.0117,-2.49207 0.1054,0 0,2.49207 0.78475,0 0,0.22343 -0.38653,0 -0.0763,0.19388 -0.21651,0 0,2.9341 0.14052,0.0687 0.10544,0.20624 0.0586,0.12031 0.50365,0.0172 0.1054,-0.0687 0.1874,-0.0859 0.15226,-0.18906 0.33968,0 0.0233,0.20624 0.0351,0.2578 0,0.29217 -0.14053,0.0516 -0.23426,0 -0.1054,0.17186 -0.10543,0.0687 -0.17571,-0.0687 -0.0585,-0.20624 -0.082,-0.17185 -0.48022,0 -0.0351,0.2406 -0.0351,0.0687 -0.082,0.0859 -0.0703,0.0171 0,0.75623 -0.0118,0 0,0 0.2225,0.10311 0.12883,0.22343 0.11714,0.2578 0.0351,0.36091 -0.0237,0.22344 -0.10543,0.20624 -0.15226,0.15467 -0.0703,0.0687 0,0.34373 0.15227,0.13749 0.0937,0.27499 0.0937,0.30936 0.0118,1.4265 0.2694,0.42966 0.5388,0.46405 0.52706,0.25779 0.56222,0.49842 0.79646,0.87653 0.5271,0.73902 0.51536,0.7734 0.46849,0.97965 0.3514,0.96245 0.22252,1.18588 0.16397,0.97964 0.26939,0.7734 0.3514,0.3953 0,0.63591 -0.22256,0.30936 -0.18741,0.53278 -0.25765,0.0859 0,3.91856 0.52706,0 0.72619,0.41249 0.52706,0.41248 3.94725,0.24061 0.0586,0.30936 -0.32798,0.20624 0,0.5156 0.26942,0.0344 0.0351,0.24061 -0.26941,0.25781 0,4.09043 0.2811,0 -0.012,-1.01402 0.28111,0 0,0.85933 0.28111,0 0.012,3.69514 0.3045,0.10312 0.15229,0.24062 0.10543,0.29217 0,0.13749 -0.11716,0.15468 -0.14056,0.20625 -0.64417,0 -0.24597,0.41247 -0.14052,0.37811 -0.11716,0.17188 0,3.97012 4.73194,-0.42967 0.42167,-0.0171 5.15361,6.99498 0,9.41831 0.27098,0.6888 0,2.59386 2.16528,2.83582 0.51534,-0.49843 0.5271,0 0.23424,0.41248 0,1.20307 0.39823,0 0,0.3953 1.1713,0.2406 1.69835,0 0,-4.14198 -0.74964,-0.25781 -0.46848,-0.24062 0,-0.42966 10.1549,-1.0312 0,-1.77023 2.85795,0 0,1.40932 6.4302,-0.51561 36.52028,0 0,118.69255 -550.802601,0.21143 z"
       id="path2991"
       style="fill:#cccccc;fill-opacity:1;stroke:none;display:inline" />
  </g>
  <g
     transform="translate(0,-308.26766)"
     id="layer2"
     style="display:inline">
    <path
       d="m 129.22783,308.26766 -0.10805,0.1057 -0.072,1.86953 -0.072,0.10569 -0.0361,0.7465 -0.25661,0.31709 0,0.32371 0.25661,0.31709 0,1.55244 -0.14857,0.0529 -0.50873,-0.48224 -0.14406,0 0,1.01734 0.61678,0.69365 -0.072,1.38729 -0.2161,0.15855 0,0.58794 0.25212,0.64079 -0.036,3.62677 -0.21611,0.21801 -0.036,1.01073 0.14407,0.15855 0.036,0.96449 -0.072,0.58795 -0.25662,0 -0.2161,0.7465 -0.036,0.37654 0.18008,0.47565 0.036,0.6408 -0.14409,0 -0.18457,-0.4228 -0.36016,-0.42939 -0.1846,-0.15855 -0.18007,0.10569 -0.43671,0.95789 -0.25662,0.0529 0.0361,0.218 0.36467,0.47565 0,1.39389 -0.25212,0.26424 0,0.48225 0.14407,0.15855 0,0.4294 0.10805,0.15854 -0.036,2.66888 -0.21609,0.31709 -0.18459,0.42941 -0.18008,1.17589 0,0.95789 -1.4947,1.60529 0,0.90504 0.6213,0.64079 -0.0361,3.04544 -0.76536,2.29233 -0.43669,1.49298 -0.4367,2.14039 -0.32866,1.38729 -0.10805,1.17589 -0.40068,0.0529 0.036,-1.49959 0.18457,-0.3171 0,-0.42939 -0.2206,-0.0529 0,-0.21139 0.40069,-0.48225 0.072,-0.5351 -0.58077,-0.36995 -0.0361,-2.08093 0.36466,-0.42939 1.23358,-0.0529 0.25661,-0.4294 0,-0.36994 -0.21609,-0.27086 0.14406,-0.36994 0.0361,-0.3237 -0.36467,-0.0529 -0.76535,-0.10569 -0.2161,-0.6408 -0.36467,-0.21139 -0.036,-2.88689 0.25663,0 0.14406,-0.47564 -0.036,-0.42941 -0.29262,-0.15853 0,-1.22874 -0.25212,-0.37656 -0.25662,-0.2114 0,-1.44014 -0.25212,0 0,1.44014 -0.29264,0.2114 -0.072,0.32371 -0.072,0.85219 -0.18458,0.58793 -0.29263,0.15856 0,0.27085 0.47721,0.4228 -0.0405,3.46821 -2.03493,-0.2114 0,0.37656 0.29262,0.0529 0,0.42279 -0.2566,0.11231 0.072,0.69365 1.67475,1.11644 0.036,1.86953 -0.40068,0.37654 -0.29264,0.1057 0.0405,0.5351 0.39618,0.3171 0,0.37655 -0.14407,0 0,0.79934 0.14407,0 -0.036,1.65815 -0.94543,4.7498 -0.83739,4.21472 -0.94544,4.32702 -1.05347,5.33776 -0.40069,1.54584 -2.25555,-0.36995 -0.50873,-0.1057 -0.25662,-0.27085 0,-0.5351 -0.10804,-0.95788 -0.21611,-0.8522 -0.25661,-0.80594 -0.32865,-0.36995 -0.65281,0 -0.29264,0.36995 -0.18007,0.74649 -0.18459,1.01734 -0.25212,1.97524 -0.50874,3.20398 -0.14856,0.85218 -0.54475,0.6408 -1.08951,0.0528 -0.0361,0.48225 -0.47723,0.15855 0,0.3237 0.65731,0.47564 0,0.16516 -0.10805,0 0,0.21139 0.25212,0.2114 0.036,5.76715 -0.32415,-0.0529 0,-0.90505 -0.11255,-0.4294 -0.65281,-3.63337 -0.65729,-3.78532 -0.83289,-4.16847 -0.6573,-4.74981 0,-1.12304 0.25662,-0.15855 0,-0.58795 -0.14858,-0.0529 0,-0.26424 0.47272,-0.3237 -0.072,-0.6408 -0.68882,-0.6408 0,-1.59868 0.40068,-0.48225 1.23357,-0.0529 0.22059,-0.26425 0.036,-0.48224 -0.32865,-0.4294 0.32865,-0.0529 0,-0.48224 -1.49018,-0.21141 -0.0765,-0.53509 -0.21609,-0.15855 0,-2.77457 0.40069,-0.2114 -0.036,-0.69365 -0.32866,-0.16515 0,-1.06359 -0.54475,-0.69364 -0.54475,0.74649 -0.0361,1.11644 -0.43669,0.0595 0,0.47564 0.28813,0.37655 -0.0361,3.30968 -1.74681,-0.37655 0,0.37655 0.29264,0.4228 -0.40068,0.16515 0.072,0.69365 0.54475,0.36993 0.6573,0.0529 0.54476,0.70025 0,1.86294 -0.69333,0.37655 0,0.58795 0.4367,0.42278 -0.28813,0.37656 0,0.3237 0.32866,0.26423 -0.0765,1.44015 -0.58078,3.09828 -0.65279,3.36251 -0.65731,3.52108 -0.80137,3.79192 -0.94543,4.48557 -0.65281,2.93312 -0.472706,2.29894 -0.36468,1.38729 -0.36466,0.69365 -0.47272,0.74649 -0.25662,0.79934 0.0405,0.80595 0.25212,0 0.072,0.85219 0.69332,0.42939 0,0.36996 -0.32865,0 0,0.53509 0.25662,0.15855 0,2.99258 -0.32865,0.26424 0,0.2114 0.18008,0.218 0,0.5351 0.14857,0.15855 -0.22061,16.65407 -1.63425,1.12303 0,0.26426 0.25212,0.6408 0.8734,0.9645 -0.10805,1.28157 0.40069,0.26425 -0.34216,26.43776 -0.30614,0.37656 -2.83181,4.45253 -2.521165,3.17094 -3.601671,4.22794 -3.444083,3.93063 -3.038906,3.62018 -3.345046,3.92404 -3.754742,4.08259 -4.371506,4.67715 -6.019292,6.11728 -3.862766,3.92404 -4.114916,3.92405 -11.421768,10.80103 -4.992794,4.22793 -8.333354,7.09499 -4.529093,3.69944 -4.164432,3.17094 -4.785701,3.47484 -5.762663,4.22792 -5.6591213,4.07598 -4.1193957,2.64246 -3.601661,2.18663 0,30.83084 0.472726,-1.28159 0.297121,-1.52602 0.261135,-1.69117 0.517731,-0.87201 5.7536577,-3.37574 0.14856,0.65402 0,3.97688 -0.256611,7.46494 -0.14856,-0.0132 -0.04053,2.70852 0.148579,0.0265 -0.108051,6.81093 -0.148574,0.11231 -0.148578,-0.3303 -0.333139,-0.21801 -0.148575,0.11231 -0.148577,0.218 -0.522241,0.0529 -0.148561,-0.436 0,-0.48885 -0.112545,-0.49547 -0.148575,-0.218 -0.369171,0.16515 -0.225105,0.48886 0,0.54831 0.189088,0.1057 0,0.3303 -3.3045257,0 -0.11256,-0.16515 -0.03602,-0.38315 -0.445699,0 -0.148578,0.218 -0.07653,0.38315 -0.6573,0.0462 0,14.9629 37.506806,0 0.71584,1.1693 1.193042,0 0.238616,-1.40052 8.513431,0 0.715831,0.93147 0.639297,-0.1123 0.396183,-0.81917 31.757665,0 -0.796866,57.83673 12.385219,1.75723 26.899926,3.96368 20.70956,2.47732 12.26817,0 17.89575,-3.30306 0,-48.38997 4.83974,-1.81668 13.39369,-3.63339 10.69243,-2.4773 10.12968,-2.31214 11.81796,-1.98185 3.81326,-0.72005 0.47723,0.70022 1.51269,-0.2312 0.16208,-0.70025 0.71582,-0.58795 3.97984,-0.46903 9.3103,0 5.8077,1.28821 6.60905,1.4005 11.6964,2.80101 14.80283,3.97027 12.89396,3.73906 3.10192,1.05037 0.87791,0.81916 0.55826,0.46905 -0.23862,11.09172 -1.03547,0.58133 -0.16208,1.05037 -0.2386,2.33857 0,1.75062 -0.39619,0.58795 0,2.10076 0.79687,0.81916 0,20.08265 1.90887,1.16928 9.54891,1.28161 70.45305,5.06692 9.42284,-0.67383 5.60059,-1.82329 0,-31.41221 -0.95445,-2.56978 -1.7513,-3.73907 0,-14.24283 22.76251,1.4005 17.58963,1.05036 22.1232,1.75063 25.07209,1.63833 13.44766,1.05037 18.94026,1.05038 0,0.93145 -1.07605,0.15856 0.28371,0.6606 1.00845,2.22628 0,28.32713 18.23341,2.31214 8.49988,0.66061 12.7184,-0.0859 -0.0316,-119.88817 -21.8666,2.51033 0,-2.13379 0.41862,0 0,-0.35012 -0.49966,0 0,-1.22214 -0.13964,-0.14533 0,-1.02395 0.47728,-0.23122 0,-0.38315 -0.59429,-0.40958 0,-2.06772 0.18013,-0.23782 0.0765,-0.1123 -0.0586,-0.26425 -0.19813,-0.033 0,-0.64079 -0.12159,0 0,-0.26424 -0.31505,0.0595 0,0.20479 -0.10357,0 0,0.17837 0.13954,0.0528 0,0.40957 -0.27466,0.033 -0.0228,0.26425 0.2972,0.14533 0,2.1602 -0.11707,0.46244 -0.47723,0.033 0,0.2048 0.37814,0.20478 0,2.21967 -0.12153,0.25764 -0.43664,0.35013 0,0.20479 0.36011,0 0,5.31793 -4.63713,11.99675 -5.74919,0 0.018,0.90503 -0.23863,0.0265 -0.11711,-0.35013 -1.85033,0.033 0.0179,0.40958 0.29715,0.0595 -0.0408,0.49546 -0.23864,0.52188 -0.41416,0.033 0,0.35013 0.33763,0.0859 0.15761,0.3237 0.0179,3.58713 -0.43673,0 0,0.23121 0.41876,0.38316 0.018,1.95542 -1.82783,3.09166 -0.49971,1.22875 0.063,2.21967 0.21611,0.1189 0.16203,-0.40958 0.27466,0.0265 0.37818,0.49546 0,4.00992 -2.5122,2.12058 -4.13285,2.87366 -3.69171,2.44427 -5.36647,3.3361 -6.91519,4.00332 -6.89265,3.44841 -4.1059,1.71759 -4.68217,-2.54336 -5.50155,-3.19077 -4.9793,-3.25022 -4.92527,-3.40877 -3.96631,-3.05203 -3.78624,-3.19737 -3.13348,-2.39142 -3.15145,-2.8076 -2.44013,-2.23288 -2.32758,-2.1536 -6.49648,-6.15692 -3.16045,-3.25022 -4.99283,-5.55576 -4.50208,-5.08012 -1.75132,-2.21966 -4.19593,-5.04708 -3.26399,-3.858 -7.93718,-10.53678 -5.17288,-7.24033 -4.91627,-7.18087 -7.82011,-12.08923 -3.4621,-5.86625 -3.61967,-6.22298 -1.80984,-3.23701 -1.93138,-3.09828 -2.12949,-4.05616 -1.23357,-2.45088 0,-25.95551 0.2386,-0.033 0.12157,-0.25762 -0.0991,-0.17837 -0.081,-0.29068 0.19809,-0.17836 0,-0.40297 0.18009,-0.23781 0.29713,-0.26426 0.12155,-0.436 0.27915,-0.46904 0,-0.436 -0.4187,-0.26425 -0.30164,-0.37655 -0.33766,-0.26425 -0.2386,0.033 0.0405,-15.97364 0.12157,-0.1189 0.11703,-0.1982 0,-0.29727 -0.13956,-0.0859 -0.19809,-0.11891 -0.0586,-0.23121 0,-2.48391 0.0765,-0.17176 0.18009,-0.0595 0,-0.3237 -0.13956,-0.0265 0,-0.40959 0.16208,-0.11891 0.29712,-0.25764 0.0991,-0.17837 0.0585,-0.31708 0.16208,-0.15195 0,-0.64079 -0.13958,-0.11231 0,-0.23782 0.11708,-0.0859 -0.018,-0.40959 -0.40069,-0.436 -0.21611,-0.44261 -0.23862,-0.58134 -0.27912,-0.70025 -0.081,-0.40957 -0.18008,-1.25517 -0.31512,-1.69117 -0.37819,-1.98846 -0.19809,-1.07679 -0.4187,-2.39804 -0.61679,-3.21057 -0.49972,-2.94634 -0.6348,-3.32949 -0.36017,-2.42445 -0.17557,-1.34105 0,-1.40051 0.17557,-0.11891 0.0225,-0.46903 -0.18008,-0.23121 0,-0.14534 0.13956,-0.0859 0.25662,-0.23782 -0.018,-0.60777 -0.31965,-0.0925 -0.16657,-0.27745 -0.004,-1.75064 0.10805,-0.218 1.10302,-0.033 0.13057,-0.25103 -0.0225,-0.66722 -0.10805,-0.033 0,-0.19157 0.0675,-0.033 0,-0.50868 -0.4772,0 0,-0.5351 -0.8644,0 0,-2.60282 0.30163,-0.31708 0,-0.41619 -0.19358,-0.28407 -0.13057,-0.0595 0,-1.05038 -0.4322,-0.47563 -0.15306,0 -0.40971,0.54169 0,1.14287 -0.2611,0 -0.0181,0.60116 0.23411,0.2246 0.045,2.7878 -1.38213,0 0,0.28406 0.17109,0.13213 0,0.31708 -0.19361,0.033 0.0226,0.47564 0.71133,0.9777 0.39169,0.0661 0.2161,0.12552 -0.0226,1.71761 -0.23861,0.0265 -0.0855,0.15855 -0.28363,0.16515 0,0.47565 0.39167,0.40958 0,0.19157 -0.13057,0.0925 0,0.54171 0.10806,0.12551 0,1.30142 -0.32416,2.25269 -0.73383,3.32949 -0.58526,3.58714 -0.34667,1.74402 -0.62579,2.82743 -0.69332,3.67961 -0.49522,2.6953 -0.39168,1.84311 -0.36918,1.10984 -0.32415,0 0,-0.40959 -0.54024,-1.17588 0,-1.26838 0.23861,0 -0.0405,-0.38316 -0.1981,0 -0.12606,-0.37655 0,-2.19323 0.0855,-0.0925 0.0855,-0.35012 0.0855,-0.3171 0.13057,-0.12552 0,-0.25764 -0.21611,0 -0.10805,-0.25104 -1.47222,0.033 -0.17108,-0.73328 -0.30164,-0.72667 -0.58527,-1.77705 -0.73384,-2.22627 -0.49973,-1.6185 -0.19359,-0.66061 -0.15307,-0.15855 -0.45471,0.75971 -0.77885,1.99505 -0.4097,1.36747 -0.27913,-0.033 -0.0855,-0.15856 -0.39168,-1.23534 -0.2161,-0.91825 -0.45471,-1.40051 -0.6708,-2.41123 -0.88692,-2.69531 -0.8869,-3.20396 -1.01298,-3.30308 -0.77885,-2.50373 -1.06249,-3.77871 -0.54025,-2.12717 -0.71133,-2.02808 -0.67081,-1.6185 0.063,-2.95296 0.36917,-0.0925 0.13056,-0.15854 0.13057,-0.29067 0.018,-0.69364 -0.0855,-0.31711 -0.38718,-0.35012 -0.23861,-0.12551 -0.67081,0 -0.0225,-1.24197 -0.15306,-0.40957 -0.14858,-0.63418 -0.30163,-0.5417 0.0181,-2.47732 0.30614,-0.53509 -0.0225,-0.44261 -0.30164,-0.25764 0,-0.5417 -0.10805,-0.18498 0,-0.44922 0.34215,-0.31709 0,-0.56812 -0.4322,-0.6342 -0.36466,0 -0.4142,0.72668 0,0.47564 0.39169,0.25764 -0.0225,0.56813 -0.17109,0.19159 0,0.47563 -0.17558,0.38315 0,0.44261 0.2161,0.38316 0,1.07681 -0.13056,0.12551 -0.12605,-0.15854 0,-0.25104 -0.26113,-0.5417 0,-0.72668 0.26113,-0.19158 -0.0225,-0.47564 -0.26113,-0.57474 -0.14857,0.033 -0.0676,0.47564 -0.10805,0.25764 -0.14857,-0.22461 -0.19808,-0.63418 0.0225,-0.3171 0.34665,-0.57473 -0.0225,-0.3171 -0.0855,-0.50867 -0.32416,0 -0.15306,0.44922 -0.17107,0 -0.13057,-0.22461 -0.13056,0 0,-0.60116 0.30164,-0.35012 -0.018,-1.20893 -0.36917,0.0991 0,-3.04543 0.2386,-0.38316 -0.0225,-0.60115 -0.27913,-0.44261 0,-0.8588 0.063,-0.22461 0.38718,-0.033 0.0225,-0.18497 0.0855,-0.25764 0,-0.28406 -0.25662,-0.35013 -0.40968,0.033 0,-1.05038 0.19359,-0.218 0,-0.5417 -0.2161,-0.60116 -0.0855,-0.28407 -0.2206,0 -0.063,0.21801 -0.23861,0.70025 0,0.47564 0.15307,0.15855 -0.0225,1.33443 -0.23861,0 -0.21609,-0.28406 -0.13057,0.18498 0,0.5417 0.045,0.44261 0.1936,0.033 0.15307,0.28406 0.17108,0.19158 0,0.41619 -0.2161,0.47563 -0.13056,0.12553 0,0.60115 0.09,0.19158 0.23411,0.15854 -0.0405,3.77872 -0.15307,0 -0.36467,0.40958 -0.0225,0.35012 0.13057,0.19158 0.30163,0.0595 -0.045,0.79274 -0.34665,1.05037 -0.25663,-0.38315 -0.23861,0.033 -0.0675,0.38315 0.0225,0.37654 0.30614,0.22462 0,0.63418 -0.32865,1.33444 -0.30163,-0.66722 -0.27913,0 0.0225,0.79274 0.27913,0.28407 0.045,0.60115 -0.49973,1.40051 -0.13057,0 0,-0.75971 0.17558,-0.38317 0.0225,-0.35011 -0.32414,-0.56814 0,-0.92485 0.30163,-0.53509 -0.63029,-1.24196 -0.54024,1.36747 0.28362,0.28406 0,1.01735 -0.30163,0.66722 0.0181,0.44261 0.17558,0.15855 -0.0225,2.91991 -0.26112,0.47565 -0.0856,0.50866 -0.17107,0.47565 -0.0225,1.23535 -0.36917,0.41618 -0.2161,0 -0.0856,0.0595 -0.26112,0.0991 -0.32414,0.44262 -0.17108,0.28406 0.0225,0.47564 0.34666,0.41619 0.34216,0.0265 -0.0181,3.17755 -0.47722,1.16928 -0.39168,1.20894 -2.03043,7.70936 -1.5127,5.6152 -2.03493,7.5244 -0.14858,0.28406 -0.13056,-0.033 -0.2161,-0.69363 -0.13057,-0.66722 -0.17558,-0.28408 -0.19358,-0.0661 -0.25662,0.033 -0.19809,0.40958 -0.32415,0.8588 -0.47272,1.81008 -0.41419,2.21965 -0.49523,1.83652 -0.36916,0.033 -0.0855,0.15855 -0.26113,0 -0.0855,0.25764 -1.34162,0 -0.12605,0.21801 0,0.29066 -0.22061,0.0265 -0.063,0.19157 0,0.25763 0.39169,0.25104 0,0.35013 0.19358,0.28406 0,2.21966 -0.10804,0.22461 0,3.32949 -0.4322,0 0.0181,0.41618 0.13056,0.0595 0,0.50867 -0.32415,0.82576 -0.17108,0.033 -0.0855,-0.15854 -0.80137,0 -0.13056,0.19157 -0.23861,-0.033 -0.36466,0.35013 0,0.25103 0.38717,0.60116 -0.0225,2.41785 -0.34666,0.21801 0,0.19157 0.30614,0.0661 0.018,0.79274 -0.27913,0.56813 -0.67081,1.42692 0,0.54171 0.13056,0.31708 0,5.55577 -0.4097,0.66062 -0.13055,0.033 -0.0225,-2.06111 0.17107,-0.54171 0.15307,-0.15854 0,-0.12552 -0.34665,-0.37655 0.0676,-3.90423 0.38718,-0.0661 0.32414,-0.60115 -0.0405,-1.36748 -0.4547,-0.50867 -0.13057,-0.34352 -0.15307,-0.57474 -0.32415,-0.98431 -0.23861,-1.23534 -0.34666,-1.68457 -0.38718,-2.56979 -0.47722,-2.76136 -0.62578,-3.07846 -0.6708,-3.61356 -0.71134,-3.46161 -0.28364,-2.12718 -0.14856,-1.58548 0.0855,-0.25103 0.14857,0 0,-0.63419 -0.12606,-0.033 -0.0225,-0.31709 0.27913,-0.31709 0,-0.41618 -0.13056,-0.21801 -0.25661,-0.12551 0,-2.12718 0.97244,-0.0661 0.26113,-0.25104 -0.0226,-0.47564 -0.30614,0 0,-0.31709 0.2161,0 0,-0.29068 -0.27912,0 -0.0855,-0.18497 -0.15307,0.0595 -0.0225,-0.72668 -0.27913,0.0265 -0.063,0.0991 -0.21611,0 -0.11255,-0.0661 0,-2.47069 0.15307,-0.0991 0.17559,-0.19158 0,-0.37655 -0.21611,-0.25764 -0.19809,-0.0925 0,-1.01734 -0.4322,-0.63419 -0.47272,0.7597 0.018,0.89183 -0.2161,0.12552 -0.14857,0.15855 0,0.41618 0.17108,0.18497 0.17558,0.13213 0,2.82081 -0.56277,0.0661 -0.34664,-0.31709 -0.45472,0.0595 -0.0225,0.41619 -0.0855,0.21799 -0.0676,0.2246 0.0225,0.44262 0.15307,0.19158 0.32416,0.0661 0.19358,0.5351 0.43221,0.0991 0.36917,0.28406 -0.0225,1.45996 -0.34666,0.28406 -0.10805,0.0991 -0.13056,0.15856 0,0.40957 0.045,0.15855 0.34666,0.12551 0,0.25765 -0.10805,0.0925 0.0405,0.70026 0.13055,0.033 -0.13055,1.41372 -0.13056,1.10983 -0.32865,1.82329 -0.26112,1.53923 -0.62128,2.92653 -0.62129,3.65318 -0.49073,2.74155 -0.72034,3.83817 -0.58976,2.64245 -0.49073,1.78366 -0.39168,0.76632 -0.26562,0.0462 -0.0945,0.77292 -0.099,0.0462 -0.004,0.42278 0.16207,0.33692 0.13506,0.0661 0.0765,0.65399 0.29263,0.17837 0.24311,0.29728 -0.063,0.13212 -0.12155,0.0462 0,0.56152 0.16207,0.17176 0,2.61603 -0.28363,0.15855 0,0.44921 0.2161,0.0198 0,0.36333 0.12155,0.19818 -0.0181,10.37163 -7.56801,-0.78611 -0.045,-0.42941 -0.23409,-0.0462 0.018,-0.40297 -0.19809,-0.17837 -1.21106,0 -0.0181,-0.11231 -0.0765,-0.31708 -0.6753,0.0462 -0.045,0.17836 -3.0479,-0.29066 -0.2161,-0.13873 -1.7018,-0.0661 -0.21158,0.25103 0.0134,0.48885 -20.10629,-2.64905 -0.063,-10.0083 -0.30614,-26.49061 -0.24761,0 0,0.46903 -0.42769,1.05699 -0.90492,1.12304 -1.05799,1.19571 -0.82389,0.91825 -0.81487,0.79274 -0.93643,0.82576 -1.20655,1.24196 -0.81489,0.58134 -1.3326,0.92486 -0.56728,0.0462 -0.21609,0.13212 -0.26111,-0.0198 -0.24312,-0.25103 -0.41419,0 -0.27462,0.49545 0,0.42939 0.16657,0 0.50874,0.33692 0.44119,0.29067 0.13957,0.13873 0.61229,0.0198 0.40068,-0.0198 0.28813,-0.25103 0.61228,-0.13212 0.58528,-0.18497 0.8869,-0.17837 0.84639,-0.22462 0.61229,-0.3369 0.81037,-0.15855 0.81488,-0.0859 0.62579,-0.15855 0.72033,-0.13874 -0.13957,1.73081 -0.0585,1.21554 -0.018,5.5095 0.018,4.11563 0.0315,3.28325 0.24311,4.54502 0.045,3.01241 0.0945,1.95541 0.22961,1.53262 0.2161,0.58134 -12.7859,-1.6185 -0.15306,-0.17836 0,-0.3171 0.10804,-0.0397 0,-0.20479 -0.12156,-0.0661 0.0135,-0.36334 0.30614,-0.0198 -0.027,-0.33692 -0.81487,-0.0661 0.0315,0.8522 0.15307,0.0661 0.0134,0.56152 -0.87339,-0.0198 -0.0135,-1.82329 -0.26112,-0.29067 0.018,-1.48638 0.0585,-0.22461 0,-0.62759 0.2161,-0.17836 0.0134,-0.40958 0.17108,-0.19818 0,-0.54171 -0.20258,-0.22461 0,-1.21552 -0.21161,-0.17838 -2.08446,0.0198 -0.12156,0.27086 0.027,1.07679 -0.24311,0.38316 -0.063,0 0,0.13872 0.0945,0.27086 0.2116,0.0198 0.0181,0.42941 0.24311,0.19818 -0.0315,1.55244 -0.28813,0.0265 -0.0945,-0.0925 -0.16658,-0.22461 -0.0765,-0.11231 0.0135,-0.47563 0.15307,-0.0859 0,-0.5417 -0.12155,-0.24443 -0.12156,-0.0727 -0.0765,-0.0859 -0.10805,0.0198 -0.12157,0.13873 -0.063,0.15854 -0.09,0.0661 0.0134,0.40298 0.10805,0.15854 0.13957,0.0198 0.0134,0.65401 -0.12155,0.0198 -0.0495,0.2048 -0.65732,-0.0462 0,-0.15855 -0.13956,-0.0859 0,-0.67381 0.0495,-0.0925 0.0765,-0.13212 -0.0315,-0.42939 -0.10804,-0.25104 -0.13957,-0.11231 -0.16657,0.0265 -0.09,0.15855 -0.15308,0.33691 0.0134,0.29067 0.21611,0.15855 -0.0181,0.56153 -0.0765,0 -0.09,0.0925 -0.0765,0.2246 -0.38266,0 -0.29265,-0.44921 0,-0.45583 0.10806,-0.0859 0.12156,-0.15855 -0.0135,-0.38316 -0.15307,-0.22461 -0.12606,-0.15855 -0.28813,0 0,0.3171 -0.13956,0 0.0134,0.58134 0.15307,0.0462 -0.0134,0.60776 -0.12156,0.0925 -0.045,0.19818 -0.38718,-0.0198 -0.13505,-0.13213 -0.0765,-0.29727 0.2296,-0.31049 0.18459,-0.29727 0,-0.80596 0.10804,-0.17836 0.13507,-0.27084 -0.0134,-0.58796 -0.0765,-0.33691 -0.13957,-0.33691 -0.2161,-0.20479 -0.2296,-0.17837 -0.36467,-0.0198 -0.12607,0.13212 -0.27461,-0.0198 -0.13506,-0.31709 -0.13957,-0.15855 0.0134,-1.30141 0.0315,0 0.0765,-0.38315 0.18459,-0.0198 0.045,0.0661 0.44571,0 0.18458,-0.25104 -0.0315,-0.5351 -0.12154,-0.22461 -0.47723,-0.27085 -0.41418,-0.22461 0.0315,-1.84311 0.27463,0 0,-0.38316 -0.18008,-0.44921 -0.0945,-0.25104 -0.045,-0.27085 -0.17108,-0.1123 -0.09,-0.0397 -0.0765,-0.15855 -0.0134,0 -0.0765,0.15855 -0.1846,0.19818 0,0.27085 -0.17107,0.3171 -0.10806,0.0859 0,0.33692 0.26113,0.31709 0,2.09414 -0.94994,0.0198 -0.0765,0.42941 0,0.35673 0.12156,0.25102 0.29264,0.0397 0.50422,0.45583 0.0495,1.20892 -0.13957,0.27085 -0.13957,0.0265 -0.15306,0 -0.2116,-0.15855 -0.27913,0.0462 -0.28813,0.17836 -0.36917,0.33692 -0.0901,0.31709 -0.063,0.26424 0.045,0.36334 0.045,0.44922 0.018,0.80594 0.13506,0.29728 0.18458,0.38316 0.0495,0.29067 -0.26113,0.0198 -0.15306,-0.15855 -0.33766,0.0462 -0.26112,-0.31049 0,-0.47564 0.2161,-0.2246 -0.0315,-0.49547 -0.2026,-0.38316 -0.2206,0.0265 -0.23411,0.38315 0.0495,0.58134 0.16207,0.1057 0,0.52189 -0.16207,0.31048 -0.47272,0 -0.28363,-0.48885 0,-0.51528 0.12155,-0.17176 -0.027,-0.52187 -0.18909,-0.37656 -0.2116,0.033 -0.2116,0.34353 -0.0225,0.41618 0.18909,0.24442 0,0.44922 -0.18909,0.23782 -0.54025,0 -0.18909,-0.34351 0,-0.41618 0.16658,-0.27087 0,-0.48885 -0.2386,-0.31049 -0.23412,0 -0.25661,0.48226 0,0.31708 0.18458,0.0991 0,0.66061 -0.13957,0.23783 -0.47271,0 -0.0225,-1.86294 0.26111,-0.13872 0.0676,-0.27746 0.2116,-0.20479 -0.0225,-0.58794 -0.18908,-0.033 -0.0225,-1.31462 -0.35117,-0.41618 -2.00342,0 -0.11705,0.58793 -0.0225,0.65401 -0.11706,0.24442 -0.18908,0.27747 0,0.34352 0.2341,0.38315 0.26113,0.44922 -0.0225,2.45088 -0.16658,0.44921 0,1.27499 -16.50012,-1.9356 0,-37.33128 -0.30615,0.033 -0.072,1.79687 -0.21161,0.44922 -0.11705,0.2048 -0.42319,0.48224 -0.89589,1.03718 -1.0805,1.07018 -1.01297,0.93148 -0.84639,0.83237 -0.84639,0.62097 -0.45021,0.27747 -0.2341,0.27745 -0.42319,0.27745 -0.82389,0.7597 -1.17505,1.13627 0,0.17176 -0.072,0.38315 -0.13957,0.48225 0,1.00413 -0.072,0.65402 -0.16658,0.48223 -0.2116,0.2048 -0.18908,0.27746 0.12155,0.24443 0.30165,0 0.16657,-0.27746 0.30614,-0.17176 0.75185,-0.13873 0.16658,-0.13874 0.18908,-0.31048 0.40069,-0.7597 0.32864,-0.69365 0.045,-0.58134 0.61229,-1.0768 1.20205,0.0397 0.46822,-0.13874 2.14299,0.033 0.35566,0.17177 0.72934,0.033 0.045,2.38482 0.11706,4.14866 0.14407,2.99918 0.11704,3.38895 0.30615,2.7944 0.28363,1.38068 0,10.02151 -20.95267,-2.35179 0,-0.20479 0.0945,-0.35012 -0.4232,-0.54831 -6.9197,-0.83238 0,-0.27745 -0.28362,0 -0.70233,0.62759 -0.18908,0.40957 -31.06885,-3.86458 -1.39114,-0.56153 -0.0225,-0.11891 -0.10806,-0.17176 -0.15307,-0.12552 -0.30614,-0.0529 -0.25212,0.0529 -7.8111,-3.34932 -0.31965,-0.36993 -0.42771,-0.15854 -0.21158,0.0529 -0.25212,0.10571 -0.49973,-0.3105 0,-1.5194 0.32415,-0.3171 0,-1.35425 0.63928,-0.47565 0.28364,-0.36334 0.036,-0.42279 0.28813,-0.20479 0,-0.2114 -0.35566,-0.41618 -0.4322,-0.3171 -0.60327,-0.15855 0.10804,-17.88941 0.46372,-0.78614 0,-0.42279 -0.36467,-0.12551 0,-3.30968 0.18008,-0.26424 0,-0.3237 -0.10803,-0.1057 0,-0.3237 0.65729,-0.58795 0,-0.36995 0.2161,-0.64079 0,-1.17589 -0.61679,-0.7465 -0.36466,-1.17588 -0.40069,-1.44014 -0.4367,-2.40463 -0.54476,-3.46823 -0.69331,-4.00332 -1.0895,-6.3551 -0.54476,-3.73247 -0.69331,-4.32702 0,-1.44014 0.25661,-0.2114 0.0361,-0.37654 -0.25662,-0.2114 0.0361,-0.48225 0.50873,-0.1057 -0.0361,-0.58795 -0.68881,-0.37654 0,-2.18664 0.36016,-0.31708 1.23808,0.0529 0.29263,-0.37654 0.036,-0.6408 -0.32865,-0.15855 0,-0.27085 0.29263,0 -0.0361,-0.36994 -1.16604,-0.0529 -0.18009,-0.37654 -0.18457,-0.58795 -0.25213,-0.0529 -0.072,-2.77458 0.47272,-0.15855 0,-0.74649 -0.29263,-0.0529 0,-0.53509 -0.29264,-1.01735 -0.32415,-0.42279 -0.0361,-1.71099 -0.036,0 -0.0405,1.76384 -0.4367,0.69365 -0.10805,0.47563 -0.10805,0.48225 -0.32865,0.15855 0,0.6408 0.36467,0.27085 -0.072,3.30967 -0.76536,0.1057 -0.90942,-0.0529 0,0.15854 0.14857,0.32371 -0.2566,0.2114 0.072,0.95789 1.094,0.1123 0,0.42279 0.47272,0.5351 -0.0361,1.92238 -0.58527,0.36995 0,0.58794 0.43671,0.27085 0,0.48225 -0.14407,0 0,0.63419 0.10805,0.0595 -0.072,1.97523 -0.18008,0.90505 -1.09401,4.96781 -0.94543,4.64411 -1.0895,5.06691 -1.05799,5.28491 -0.58077,2.51033 -0.40068,1.2816 0.0361,-1.97524 0.18007,-0.15855 0.0765,-0.6408 0.32416,0 0.0765,-0.21139 -0.2206,-0.48225 -0.072,-0.53509 -0.32866,-0.3171 -0.47271,-0.11231 -1.31011,0 -0.0361,-0.90504 -0.47272,-2.51033 -0.36467,-1.06359 -0.40068,-0.58794 -0.54475,0.0529 -0.10805,0.15854 -0.6573,1.86954 -0.65281,0 -2.25554,-6.14371 -0.6573,-2.34518 -1.12552,-4.37987 -1.16604,-5.2849 -1.59824,-6.29566 -1.13002,-5.02066 -0.68882,-2.61603 -0.62129,-2.08093 -0.10804,-0.96449 0,-2.50373 0.69331,-0.9645 0.036,-0.48225 -0.18458,-0.69365 -1.16154,-0.47563 -0.2206,-1.55244 -0.0361,-0.79935 -0.25212,-0.4294 0.0361,-2.56317 0.18008,-0.90504 0.18008,-0.31711 -0.072,-0.69364 -0.32415,-0.75309 -0.0765,-0.47565 0.36467,-0.6408 0,-0.42939 -0.47272,-0.90505 -0.21611,0 -0.40067,0.79934 -0.14857,0.15855 -0.14406,-0.31709 -0.2161,0 -0.14858,0.31709 -0.18008,0.2114 0,-0.79934 0.18008,-0.6408 0.036,-0.7465 -0.14406,-0.31708 0,-2.61603 0.10804,-0.6408 0.32865,-0.4294 -0.10805,-0.69364 -0.32864,-0.3237 -0.036,-1.44014 0.29263,0 0.28813,0.27085 0.22061,-0.0529 0.036,-1.12305 -0.47272,-0.15854 -0.072,-0.5351 -0.25662,-0.0528 0,-0.79935 0.29264,-0.32369 -0.072,-0.48226 -0.32865,-0.26425 0,-0.64079 -0.10805,-0.15854 -0.036,-1.86954 -0.0765,-0.21139 z m 101.00414,82.60974 -0.2161,26.11405 -0.14857,-0.62757 -0.12156,-0.90506 -0.20709,-2.17341 -0.0315,-0.48225 -0.09,-2.41125 -0.081,-1.63171 -0.0991,-2.14699 -0.0585,-2.64246 -0.09,-3.87119 0,-1.76385 0.09,-0.61437 0.19809,-1.69116 0.27914,-1.71099 0.26111,-0.99092 0.0675,-0.60115 0.1891,-0.53511 0.0405,-0.75971 0.0181,-0.5549 z m 47.60499,7.06856 0.11255,35.50798 -0.50874,-0.0265 -0.25211,-0.59455 -0.13957,-0.82577 -0.11255,-0.9711 -0.072,-1.6119 -0.054,-3.09828 -0.0585,-0.82576 -0.12605,-2.5764 -0.0855,-1.32122 -0.0135,-2.87367 0,-7.531 0.0315,-3.03883 0.16657,-2.3716 0.13957,-2.93312 0.25662,-1.85633 0.39168,-1.96202 0.22509,-0.92487 0.0991,-0.16515 z m -119.99843,18.37166 0.13957,0.23783 0.53576,0.17176 0.58075,-0.0265 5.69063,2.71512 0.018,0.0859 -7.14479,-0.81915 -0.0181,-2.27911 0.19809,-0.0859 z m -0.55825,34.64258 156.10959,16.15862 0.2206,0.20478 0,5.22546 -0.37817,0.0265 -0.2206,0.20478 0,0.14534 0.12155,0.26425 0.47722,0.3237 0,0.14533 -0.12155,0 0,0.43601 0.12155,0 0,5.48969 -0.26112,0.0265 -0.0765,0.15194 -0.45922,0.0529 0,0.38315 0.18009,0.40959 0.47722,0.31708 0.0405,0.58796 -0.16207,0 0,0.35012 0.27912,0.0859 0.0226,3.79852 0.47722,3.79192 0.79686,5.83983 -0.0225,8.26428 -0.081,0 -0.29714,0.17176 -0.18008,0.23782 0,0.3171 0.18008,0.17836 0.40069,0.14534 0,0.20478 -0.16208,0 0,0.52189 0.16208,0 0,5.19903 -0.61679,0.26424 -0.24311,0.0595 0,0.25765 0.10355,0.55491 0.17558,0.26423 0.41869,0.14535 0.0405,0.58794 -0.15757,0.0265 0.018,0.40958 0.18008,0.0265 0,24.84569 -0.55825,0.43601 0,0.4426 0.55825,0.2048 0,0.23121 -0.081,0 0,0.52849 0.099,0.0529 0.0405,5.31794 -0.85089,0.21139 -0.0225,0.51528 0.27913,0.46904 0.47723,0.29067 0,0.46903 -0.2026,0 0,0.35013 0.2026,0.11891 0,20.14211 -0.27913,22.19001 -5.41151,0 -0.27912,-0.93807 -0.1981,-0.58133 -0.40068,0.0595 -0.31964,0.58133 -0.11706,0.75972 -6.0508,-0.17177 -0.39618,-0.29727 -0.19809,-0.93146 -0.40068,0 -0.1981,0.99092 -4.49757,-0.0595 -0.0361,-2.56979 -0.23861,-0.7531 -9.9496,-0.23781 -1.79183,2.62924 -10.38629,-0.0595 -0.35567,-0.70025 -0.55826,0.0595 0.0405,-0.58794 -0.47723,-0.35013 -0.081,-0.35012 0,-0.70026 -0.15758,-0.70024 -0.36016,-0.0595 -0.23861,0.17837 0,0.6408 -0.15758,0.40957 -0.2386,0.35014 -0.31966,0.70024 0,0.75971 -6.64506,-0.46904 -0.0405,-0.35012 0,-0.58134 -0.35566,-0.35013 -0.27914,0.40958 0.0765,0.52189 -0.19809,0.40958 -22.41135,-0.97771 -0.17108,-0.0462 -0.13956,-0.66061 -0.13957,-0.40958 -0.17108,-0.0397 -0.31064,0.28408 -0.027,0.45581 0,0.45583 -1.06699,0.0397 -0.45021,-0.66061 -0.2251,-0.9513 -0.39618,-0.0397 0,0.66062 -0.50424,0 0,0.95128 -1.9449,0 -0.16657,-0.25103 0.0855,-0.28407 -0.0315,-0.66062 -0.11255,-0.78612 -0.27913,-0.58134 0,-0.73989 -0.11256,-0.36994 -0.28362,0 -0.25212,0.36994 -0.027,0.66062 -0.25212,0.0793 -0.33766,0.82576 0,0.99093 0.27913,0.63418 -11.34073,0.11892 -0.11706,-1.4005 -0.55826,-0.64741 -0.0405,-0.872 -0.19809,-0.46905 -1.076,-0.1189 -0.0765,-3.67302 -2.74628,0.0529 -0.0405,-2.91992 -17.50858,0 0.0405,1.69778 -0.40069,0.99091 -8.15777,-0.1189 -0.83288,0.7597 0.15757,5.78038 -0.47722,0.23781 -18.26493,0.1123 -1.23357,-1.10982 0,-0.23123 -0.0405,-1.75061 0.12156,0 0.0405,-0.52849 -0.27912,-0.23121 0,-1.51942 0.15757,-0.11891 -0.0405,-0.46244 -0.75634,-0.29067 0.23861,-0.99752 0.081,-0.29068 -0.39618,-0.17175 0.0361,-0.81915 -0.19809,-0.75972 0.081,-3.03882 0.19808,-0.52188 0.43671,-0.17837 0.13505,-9.60531 0.30615,-0.24444 0.33766,-1.0768 0.0585,-0.3303 -0.62128,0 0.31064,-17.5459 0.11256,-0.0793 -0.027,-0.37654 -0.50873,0 0,0.29066 0.0586,0 0,2.18664 -0.36467,0.91165 -0.56275,1.36086 -0.50874,1.36087 -0.70232,1.61189 -0.56277,1.24195 0,0.44922 0.22511,0.25103 0.36467,0 0.0855,-0.41618 0.16658,-0.66061 0.45021,-1.32124 0.42319,-0.8654 0.45021,-0.3303 0.50873,0.0859 -0.17108,11.30971 -1.94039,0 0,0.20479 0.1981,0.33031 0.16657,0.45582 0.31063,0.53509 -0.027,7.47815 -0.50873,0 0.027,0.40958 0.36917,0.58135 0,4.70356 -0.25661,0.82578 -0.12607,0.89842 -0.18007,0.6408 0,1.10322 -1.40915,-0.16515 -1.40465,-0.12552 -4.67316,-0.16515 -3.93932,-0.11891 0,-9.66478 0.25211,-0.73988 1.26959,0 0.22511,-0.62098 0.25211,-0.45583 1.40465,-0.12551 0.33765,-0.33031 0.0315,-0.70025 -0.78787,-0.49545 -1.07149,-0.24444 -1.37765,-0.21139 -0.2251,-0.36995 -0.76084,-0.20479 -2.70125,-0.53509 0.39618,-31.7557 0.1936,-0.16516 0.17107,-0.0397 0,-0.49546 -0.25211,-0.29067 0,-0.28406 0.27913,0 0.28362,-0.33031 0.16658,-0.49546 0.17108,-0.29067 -0.0315,-0.41618 -0.27912,0 -0.58979,-0.2048 0,-6.11068 0.30615,-0.20479 0,-0.33031 -0.2251,-0.16515 0.0315,-0.29067 0.2251,0 0.33766,-0.33031 0.054,-0.45582 -0.67532,-0.49545 0.39619,-29.51623 0.33765,0 0,-0.49545 -0.31064,-0.29068 0,-0.36994 0.45021,0 0.31064,-0.29068 0.027,-0.53509 0.19811,-0.12551 0,-0.25104 -0.19811,-0.16515 -0.17106,-0.11891 -0.47723,-0.0859 -0.13956,-0.16515 0,-6.0248 0.11255,0 0.25212,-0.16516 0.027,-0.3303 -0.16657,-0.0462 0.054,-0.33029 0.31064,-0.2048 0.22511,-0.24443 -0.027,-0.45582 -0.2251,-0.2048 -0.39618,-0.21139 0,-7.88112 0.0855,-1.07679 0.6483,-4.0892 1.26508,-7.47155 0,-4.82908 0.17108,0 0.1936,-0.16516 0.0585,-0.3303 -0.25211,-0.33031 0,-0.20479 0.13956,-0.21139 0.22511,0 0.31064,-0.33031 0.027,-0.49546 0.2251,-0.11891 -0.027,-0.33031 -0.45021,-0.2114 -0.59427,-0.36994 0.0315,-1.07019 z m -59.008756,4.66395 -0.027,2.10734 -0.98594,0.86541 -0.027,0.49546 -4.303998,5.24527 -1.012972,0.8654 6.10483,-9.49962 0.25211,-0.0793 z m -5.231412,2.84723 0.337655,0.82577 -1.827843,2.43766 -3.912306,6.15031 -3.291018,5.20564 -5.123373,5.45006 0,-2.10735 0.396185,-2.03469 9.085201,-10.76801 4.335499,-5.15939 z m 5.118862,3.17755 0.0855,3.7589 -0.054,1.65153 -3.66019,5.7011 -0.12607,-0.16516 0.072,-3.59374 0.11255,-2.02147 0.47723,-1.6119 2.95336,-3.63338 0.13956,-0.0859 z m -5.064839,6.73165 0.36917,0.66062 0.02703,2.31215 -0.112549,1.11643 -0.364667,1.6119 -1.071505,1.73081 -2.926346,1.65154 -0.760848,0.0859 0.03151,-0.41618 1.039976,-2.27251 1.436165,-2.55658 2.332078,-3.92405 z m -2.953364,2.02148 0.198094,0 -0.08554,0.41619 -0.729333,1.23535 -0.171082,0.82577 -1.463177,2.85385 -1.661268,2.43106 -1.940398,1.32122 -1.323612,0.62098 -0.643797,0.12551 3.007391,-4.62428 4.81272,-5.20565 z m 8.468423,0 0.25662,0.2114 0.081,1.77045 0.2251,1.73741 0.36918,2.22626 -0.17109,9.08344 -0.6483,0.37655 0.0315,0.40958 0.16658,0.33032 0.36467,0.29066 -0.054,0.12552 0,0.66062 0.13956,0.0793 0,5.57558 -0.76086,0.20479 -0.33765,0.16515 0,0.49546 0.31065,0.66061 0.47721,0.25103 0.0585,0.53511 -0.22511,0 0,0.62097 0.22511,0.11891 -0.45021,27.74578 -0.0855,0.3303 -0.6483,0.37655 0,0.5351 0.1981,0.29066 0.19809,0.0397 0.11254,0.20479 0,0.70026 0.27914,0.0859 -0.19359,5.52933 -0.19809,0.49547 -0.31064,0 -0.53575,0.16515 0,0.62098 0.25661,0.0396 0.054,0.41619 0.6213,0.12551 0,0.66062 -0.1981,0.0397 0,0.36994 0.1981,0.58134 -0.0315,5.52933 -0.30615,11.97693 -0.0315,8.83241 -0.081,2.10735 -0.14407,1.48639 -0.16657,0.12551 0,0.70025 0.19809,0.0793 0.054,7.02233 -0.47722,1.07019 -0.56276,0.82576 -0.0855,0.49547 -0.56276,0.70685 -0.027,0.40959 0.2251,0 0,0.53509 0.16657,0.12552 -0.081,5.20564 -0.0855,0.49546 -0.33764,0.53509 -3.34956,0 -0.337655,-0.29066 0.760848,-48.84578 0.112549,-0.16516 0.054,-2.31214 -0.112549,-0.20479 0.787866,-49.21572 0.05855,-0.45583 0.112561,-1.52601 0.47721,-1.36086 0.13957,-2.06773 0.39618,-1.44014 3.43058,-5.66146 z m 274.748366,5.84644 0.31515,0.0727 1.13002,2.66227 2.02143,4.39308 6.16785,13.55579 3.46661,7.27996 0.18458,1.19572 0.054,1.81008 0.52224,0.58133 -0.054,27.27013 -1.88638,-2.2725 -5.43402,-6.96947 -7.61751,-9.94224 -0.33765,-0.72668 0.0226,-5.08672 0.39619,-1.0768 -0.10356,0 0,-0.4294 0.18008,0 0.47272,-0.88523 0,-0.53509 -0.89141,-0.19819 -0.0271,-5.19902 0.10805,-0.11231 0.10355,-0.77292 0.21162,0 0.0765,-0.50206 0.027,-0.38316 -0.44571,-0.50206 -0.027,-8.81921 0.26113,-1.69777 0.68431,-4.8555 0.36466,-3.07847 0,-3.46822 0.15759,-0.31048 -0.10356,-0.99753 z m -295.421923,0.56152 0.139562,0.0859 0.279133,0.35013 -0.02248,2.21965 -2.147492,2.13379 -1.890874,2.21967 -0.279128,0.0595 0,-0.46904 1.431662,-2.24609 2.489652,-4.35344 z m 12.794913,1.60529 -8.216298,10.93976 -1.066993,1.15607 0,-0.36994 0.535746,-0.99092 1.62975,-3.30307 3.178477,-5.61522 0.706818,-0.70025 2.219528,-1.03716 1.012972,-0.0793 z m -15.541174,0.38315 0.157565,0.17177 -1.134525,2.365 -1.746807,3.38894 -1.197547,1.77706 -2.845321,1.57886 -2.228533,0.64079 -0.31513,0 2.746247,-3.06525 3.083941,-3.17754 3.48011,-3.67963 z m 17.486063,0.60776 0.72934,1.44676 0.08554,0.61436 -0.337648,23.53767 -0.4232,22.37498 -0.16658,4.87533 -0.144064,0.0397 0.05855,2.35179 0.139561,0.25103 -0.814871,48.92505 -4.164424,0.0397 -0.139568,-0.57473 0,-0.49546 0.306141,-0.33031 -0.02703,-0.78613 -0.225106,-0.20478 -0.337662,0.0793 -0.139561,0.45581 0,0.58135 -0.25211,0.36995 -0.08554,0.36994 -0.139569,0.12551 0,0.33031 -9.593926,0 0.670807,-44.55178 0.256619,-0.0397 0,-2.31213 -0.171078,-0.12553 0.927431,-38.68553 13.254116,-17.87621 0.733844,-0.78613 z m -7.653531,1.0702 0.05402,0.37656 -0.814879,1.93559 -3.687195,6.65238 -1.74231,3.0124 0.05403,-3.42859 0.310639,-0.49545 0.05402,-0.90504 0.310644,-2.06773 0.45021,-1.73081 1.071498,-1.4071 1.206555,-0.86541 2.732759,-1.0768 z m 294.584542,3.09168 7.09078,11.71268 0.31063,0.68704 -0.10355,3.62677 -7.29786,-16.02649 z m -302.269591,3.97029 0.450205,0.0397 0.562762,1.36747 -0.112546,4.53842 -1.458678,2.51693 -0.225102,0.0462 -0.171077,-0.25104 -0.05402,-6.60613 0.139572,-0.24442 0.86889,-1.40711 z m -4.385023,0.49545 -0.198093,0.86541 -1.409152,3.22379 -1.715291,2.27251 -2.588701,3.38235 -0.166572,0 0.729339,-1.52602 2.363594,-4.91497 1.377631,-1.89596 1.607245,-1.40711 z m -5.546563,1.48638 0.73383,0.0397 -3.151454,2.6887 -2.422099,2.39143 -0.364676,0.0859 0,-0.54171 0.279128,-0.70025 0.985956,-1.44675 0.95894,-0.8654 1.490192,-0.78613 1.490183,-0.8654 z m 7.905651,0.7465 0.171083,0.24442 -0.05403,4.54502 -0.423196,3.25683 -0.648298,0.62098 -2.476145,0.74649 -2.840814,-0.0859 0.02705,-0.57474 0.310635,-0.49545 5.933741,-8.25768 z m -6.753122,1.93559 0,0.4162 -1.683775,3.0124 -2.507649,4.2147 -2.390612,-0.0462 0.027,-1.48637 2.363595,-2.10075 4.191431,-4.00994 z m -7.65353,2.19324 0.256627,1.19572 -1.746809,1.77704 -0.05402,-0.25103 1.544207,-2.72173 z m -2.390598,1.32123 0.337649,0.24443 -1.602742,3.50786 -8.752039,7.35263 -1.57573,0.0397 0.144068,-0.40959 11.448794,-10.73497 z m 329.340586,1.82329 0.39618,0.79273 0.50424,0.95129 0.8644,2.00827 0.86439,1.74402 0.79237,2.27251 0.0361,0.36994 -0.25211,0.0529 -1.00847,-0.95128 -1.00846,-0.95129 -0.50423,-1.00413 -0.50424,-1.10983 -0.2161,-1.90257 0.0361,-2.27251 z m -309.783562,1.51941 -0.675308,37.69462 -0.198098,0 -0.027,2.39802 0.166566,0 -0.756349,44.38003 -2.084465,0.0859 0.621298,-36.62442 0.193582,-0.0397 0.08553,-2.60282 -0.225087,0 0.900415,-39.26688 0.423181,-1.23535 0.252118,-1.9422 0.39618,-1.6119 0.927435,-1.23535 z m -16.968335,0.16516 0.027,0.49546 -0.616776,-0.0396 0.589764,-0.45583 z m 11.367757,1.61189 0.535741,0.36995 0,0.24442 -11.309222,12.59791 0.027,-0.49546 0.225098,-0.62098 2.251041,-4.71018 2.224029,-4.33362 1.827847,-2.76797 4.218451,-0.28407 z m -9.004162,0.36995 0,0.24442 -1.179556,1.69778 -0.310636,-0.3303 0,-1.53263 1.490192,-0.0793 z m -3.516129,0.16515 1.152534,0.0397 -0.306139,3.26343 -0.450213,0.90504 -0.985946,0.58134 -1.265089,0 0.139556,-2.8076 0.535755,-1.0768 0.814867,-0.70025 0.364675,-0.2048 z m 330.641691,0.23783 0.36016,0.15854 0.54026,0.79274 1.65676,2.53675 2.55718,3.64659 0.072,0.42279 -0.79236,-0.36994 -1.26058,-1.21553 -1.04448,-1.37408 -0.93643,-1.84971 -1.15254,-2.74815 z m -316.009935,1.37407 0.279134,0.49546 0.144062,0.90504 0.477226,0.7465 -0.787874,39.18099 -0.166572,0 0,2.60282 0.139571,0 -0.648299,36.66405 -10.129689,0 -0.198092,-0.62097 -0.05402,-0.45583 0.166583,-0.3303 0.05853,-0.36995 -0.198086,-0.36994 -0.364675,-0.0462 -0.144067,0.16515 -0.166589,0.74649 -0.733831,1.23535 -1.544207,0.12552 -0.256621,-0.40957 -0.333152,-1.44675 0.675311,-30.42788 0.166583,-0.16514 0,-2.60282 -0.198092,0 0.675296,-30.6789 13.141574,-14.94308 z m -9.058179,0.24443 0.10805,0.25103 -3.376563,6.64577 0.03151,-1.52602 0.589779,-1.7374 2.647225,-3.63338 z m -8.526936,0.95128 0.112559,0.66061 -0.112559,1.52603 -1.521706,0.0396 1.323614,-2.06111 0.198092,-0.16515 z m -2.813807,0.99093 0.02705,0.24442 -0.95895,0.99092 -0.477218,0.0859 0,-0.16515 1.409141,-1.15607 z m 336.192757,1.24856 0.68432,0.36993 0.90041,1.26838 1.00847,1.79687 1.80083,4.12223 -0.18009,-0.0529 -2.66522,-4.70356 -1.44067,-2.37821 -0.10805,-0.4228 z m -2.41311,0.95128 2.41311,4.38647 3.74573,6.87038 4.71818,8.13877 0.18008,1.79686 0.072,1.05699 0.32416,0.84558 0.10805,18.91997 -2.3771,-2.6953 -2.66524,-3.0124 -6.9422,-8.27749 0.13506,-27.55419 0.28814,-0.47564 z m -330.767754,0.27745 -0.117051,2.72172 -6.834152,7.55743 -0.337653,0 0.418683,-1.36086 4.137423,-8.79278 2.73275,-0.12551 z m 0.756352,0.0793 1.071494,0.0462 0,0.28407 -1.044482,1.15607 -0.027,-1.48638 z m -5.542052,0.2114 0.198092,0.49545 -0.11256,0.36996 -4.42104,8.75312 -2.133986,-0.0397 -1.350627,-0.45582 0.05403,-3.673 0.112559,-0.37656 5.911218,-4.99425 1.742314,-0.0793 z m -6.019286,0.36994 0,0.24443 -1.269586,1.03716 -0.027,-0.12552 0.927431,-1.0768 0.369172,-0.0793 z m 347.19133,0.27745 0.46822,0.2114 1.33262,1.21553 1.83684,1.69117 1.00846,1.21553 0.61229,1.00414 0.36017,0.95127 0.25211,1.84972 -0.10805,5.76056 -0.18007,0 -0.39619,-1.00413 -1.40465,-3.1181 -1.26058,-2.69531 -1.40465,-3.69943 -1.00847,-2.69531 -0.10805,-0.68704 z M 60.201949,509.92 l 0.225103,0 0.702323,1.81668 0.03151,0.49547 -2.701248,4.70356 -0.562767,-0.0793 0.027,-4.37987 2.278053,-2.55657 z m -18.881719,1.44013 0.34216,0 -0.03151,0.54171 -0.760843,1.27499 -11.534327,8.87863 -0.562766,0.12552 0,-0.3303 12.5473,-10.49055 z m 15.757275,1.98184 -0.027,2.72833 -0.225099,2.64246 -0.562756,0.78613 -2.390612,-0.21139 -1.715282,-0.36995 4.78119,-5.41042 0.139576,-0.16516 z m -13.420692,0.45582 0.139556,0.2048 0.05853,3.019 -2.390613,-1.11643 2.192521,-2.10737 z m 356.731237,2.23948 0.90041,1.95542 1.76482,4.12224 0.72033,2.27251 0.50423,2.11395 -1.87286,-0.0528 -1.11652,-0.58135 -0.61229,-0.73989 -0.32414,-1.00413 -0.21609,-1.26838 0,-6.76468 0.25211,-0.0529 z m -358.982272,1.68457 2.336568,0.33031 -0.139557,6.48062 -0.675325,0.82576 -3.741219,-0.49545 0.108048,-4.20811 0.144067,-1.53262 0.562767,-1.36087 1.404651,-0.0397 z m 360.891152,0.37655 0.86439,1.05699 6.483,8.5087 -0.6483,0.0529 -1.33261,-0.2114 -1.26058,-0.36993 -0.68432,-0.47564 -0.6483,-1.16269 -1.26059,-3.22379 -1.51269,-4.17509 z m -357.483085,0.24443 2.359088,0.73988 -0.1936,0.53511 -2.057441,3.63337 -0.450207,-0.44922 0,-4.34023 0.34216,-0.11891 z m 16.121935,0.16515 -0.589769,30.22307 -0.171074,0 -0.05402,2.43107 0.139572,0 -0.535754,28.98772 -0.17108,0.0793 -0.333156,0.0859 -0.144064,0.24443 -0.05403,0.74649 0.166568,0.24444 -0.08553,1.53262 -0.391677,0 -0.05853,0.49545 -0.391672,0 -0.08555,-1.03716 -0.112545,-0.6606 -0.337662,-0.40959 -0.252116,-0.0859 -0.252121,0.41619 -0.08554,0.73989 -0.027,0.91165 -0.481734,-0.0397 0,-0.99091 -0.139572,-0.0859 0,-0.49546 0.139572,-0.16515 0.03151,-0.70026 -0.08555,-0.25104 -0.225103,-0.11891 0.53574,-22.5071 0.112558,-0.3303 0.08104,-2.64246 -0.139571,-0.0397 0.48173,-28.48565 0.30614,-1.03716 0.252116,-1.23536 0.423194,-1.69117 0.423196,-1.69778 2.111469,-2.43105 z m 311.25124,1.22875 1.11652,2.43104 1.7288,4.12224 1.47668,4.43932 -0.0361,0.47565 -0.93644,-0.15855 -0.28813,0 -0.68431,-0.2114 -1.33262,-0.58133 -0.97245,-1.53263 -0.072,-8.98434 z m -336.152236,0.21139 0.193587,0 0,0.33031 -1.575716,3.26343 -2.72827,-0.36995 0,-0.3303 4.110399,-2.89349 z m 15.38811,0.0462 1.071494,0.24442 1.656766,0.41618 0.792367,0.61438 -0.198092,0.37655 -10.467344,9.94884 0.36468,-1.85633 0.504232,-2.06772 0.67531,-1.56565 5.208895,-5.94552 0.391692,-0.16515 z m -13.281131,0.44921 0.283619,0 0,4.21472 -1.634245,-0.41619 0.027,-0.66062 1.323609,-3.13791 z m 336.566417,2.83403 0.43221,0.4228 0.97244,1.16267 2.05295,2.80101 1.80083,2.21966 1.65678,2.16681 -0.61229,0.0529 -1.47669,-0.15855 -1.51269,-0.47565 -0.61228,-0.73988 -1.18855,-2.74816 -1.65677,-4.28077 0.14406,-0.42279 z m -318.697661,0.55492 0.927416,2.39142 -0.589764,28.78294 -0.198097,0.1189 -0.05402,2.72834 0.25212,0.20479 -0.56277,23.74246 -0.36466,0.90504 -0.05852,0.78613 -12.493277,0 0.508728,-22.00505 0.166583,0 0.05853,-2.35178 -0.139572,-0.0462 0.504231,-23.98688 11.876486,-11.23043 0.166584,-0.0397 z m -25.747395,0.20479 1.661261,0.0859 2.025948,0.77952 0,0.25103 -4.812728,8.21803 -0.787854,0.0793 -1.544223,-0.66061 0,-5.90589 3.457596,-2.84724 z m 5.82569,1.44674 2.224028,0.20479 -0.05852,4.78945 -5.316969,4.9546 -0.675305,-0.0397 -1.238082,-0.78612 3.376573,-6.48062 1.066988,-1.81669 0.621287,-0.82576 z m -11.93051,0.24442 -0.364661,0.37656 -6.388456,4.20811 6.217364,-4.53842 0.535753,-0.0462 z m 14.996427,0.16516 1.098512,0.41619 0.958934,0.49545 0.450212,0.45583 -0.4232,0.40958 -2.025932,2.18663 -0.05853,-3.96368 z m -5.037825,0.58134 0.08554,0.49546 -3.462106,6.64577 -0.139556,-0.12552 3.51612,-7.01571 z m 367.819854,0.60777 1.2966,0.26424 1.44067,0.58134 0.46822,0.42279 1.76481,4.86212 2.34107,5.49631 -2.30506,-3.38235 -3.78175,-6.07765 -1.22456,-2.1668 z m -376.148701,0.29727 0.198091,0.29067 -0.027,4.82909 -3.264004,-1.6053 0,-0.87201 0.225089,-0.3303 2.867831,-2.31215 z m 380.578741,0.75971 0.61229,0 0.82839,0.15854 2.26905,0.84559 0.72032,0.68704 0.61228,0.89843 0.18009,1.84972 0.072,9.30145 -0.32415,-0.0529 -2.66522,-5.97195 -1.18856,-3.38234 -1.11652,-3.48804 0,-0.84558 z m -363.948064,1.43353 -0.027,0.3303 -3.26402,5.6945 0,-3.0124 3.291033,-3.0124 z m 358.041334,0.0991 1.94491,3.17095 6.23087,9.35428 2.12498,3.54089 0.32416,1.53263 0.2161,1.32123 0.43219,1.05698 0,11.94389 -1.87286,-1.74402 -2.91735,-2.90669 -2.95336,-3.17095 -3.99784,-3.96369 -0.10806,-19.34276 0.2161,-0.2114 0.36016,-0.58134 z m -357.564115,1.01074 0.342159,0.33031 0.333152,0.41619 0,0.73989 -2.106973,1.98183 1.431662,-3.46822 z m 332.568575,1.10322 1.00847,0.26425 0.68432,0.52849 0.72033,1.47978 0.79237,1.58547 1.00846,2.74815 1.11651,2.74816 -0.072,0.79273 -6.51901,-10.09418 1.26058,-0.0529 z m 36.92606,0.18498 1.56221,3.44179 2.88583,8.01985 0,0.59456 -3.73672,0.64739 -0.6438,-0.99092 -0.0675,-1.49959 -0.2026,-0.79273 0.0315,-9.16932 0.17107,-0.25103 z m -390.204198,0.11891 3.799758,1.73081 -0.279132,6.65237 -0.8734,1.48639 -0.846391,-0.2114 -3.934818,-1.52602 0.108051,-4.62429 0.198089,-0.78613 1.463169,-2.68209 0.364674,-0.0397 z m 349.928598,0.38315 2.98938,4.91496 3.70971,5.81341 4.24997,6.23619 0.072,1.47978 0.10806,1.32122 0.43219,0.63419 -0.036,38.10419 -5.6186,-0.21139 -0.2161,-1.05698 -0.2161,-0.84559 -0.32414,-0.26424 0,-2.6953 -0.18008,-0.4228 -0.39619,-0.0528 -0.25212,0.15853 -0.14406,0.2114 0,0.3171 0,4.70357 -1.33262,0 0,-4.65073 -0.14407,-0.73987 -0.18008,-0.2114 -0.36017,0.2114 -0.14407,0.26424 -0.10804,0.58133 0,3.69945 -1.54872,-0.1057 0,-1.79688 -0.18009,-0.15854 -0.072,-12.57808 -0.14407,-30.70532 0.25212,-0.5285 0.36017,-0.21139 0.25212,-0.6342 -0.28813,-0.36993 -0.50424,-0.2114 0,-5.65485 0.14406,-0.42281 0.25213,-0.26424 0,-0.58133 -0.4322,-0.36995 0,-2.9067 z m 6.01478,0.0529 0.68431,0 1.11651,0.10571 1.44067,0.47563 1.29661,0.5285 0.54024,0.63419 0.32415,0.95128 0.072,2.21966 0,8.61441 -1.80083,-3.96369 -0.79236,-1.63832 -2.77328,-7.39888 -0.10805,-0.52849 z m -359.049809,0.63419 0.238603,0.11231 -0.04051,2.0479 -1.908882,3.03222 -0.832877,0 -0.796875,-0.17176 3.340543,-5.02067 z m 18.863711,0.33031 -0.08104,2.97276 -0.477224,0.66062 -0.931924,-0.16515 -1.238076,-0.53511 2.72826,-2.93312 z m 376.315268,0.22461 6.2489,7.52439 1.69276,1.89596 -4.00232,0.64741 -0.40971,-0.64741 -0.98595,-1.9488 -2.34107,-6.42778 -0.20261,-1.04377 z m -397.326464,0.0265 -1.949409,4.26095 -2.944361,-1.34104 4.89377,-2.91991 z m 10.03962,0.45582 1.238082,0.90504 0,0.53511 -1.661262,2.89348 0.198092,-4.29399 0.225088,-0.0397 z m 16.374071,1.40051 -0.418703,23.3725 -0.171065,-0.0462 -0.11256,2.52354 0.252116,0 -0.477219,21.87952 -1.854858,0.0397 -0.027,-1.0702 0.108047,-0.33031 0,-0.49546 -0.252115,-0.20479 -0.027,-0.37654 0.08555,-0.16515 0.027,-0.44923 -0.112544,-0.29066 -0.225103,0.0397 -0.252121,0.29067 0,0.33031 0,0.49546 -0.112555,0.0397 -0.112549,-0.3303 -0.396183,-0.0397 -0.139572,0.16516 0,0.36994 0.08555,0.25104 0.05402,0.3303 -0.139571,0.0793 -0.166568,0.49546 -0.310636,-0.24443 -0.760858,0 0.279127,-15.52442 0.171079,-0.16515 0,-2.3584 -0.139555,0 0.391672,-19.89768 0.337648,-0.82577 0.450211,-1.90256 0.283634,-1.73081 0.391687,-0.95128 3.291017,-3.30307 z m -12.997496,0.25103 1.323599,0.57474 0,0.25103 -2.309561,2.06111 -0.306145,0.0397 1.292107,-2.92652 z m 353.903919,0.27085 0.54025,0.68704 0.57628,1.21553 1.7648,4.38648 0,8.82579 -2.77327,-4.06938 -0.10806,-11.04546 z m -364.974539,0.95128 -0.07653,2.16021 -0.121562,0.46904 -0.594274,-0.40959 -0.08104,-0.35012 0.873403,-1.86954 z m -8.472915,0.17177 3.741224,1.69777 -5.0153033,7.59045 -1.035494,-0.11891 0.319654,-6.94966 0.198094,-0.81255 1.7918253,-1.4071 z m 23.118169,0.11891 1.274097,0.52848 0.913928,0.81256 -0.07655,0.29728 -9.152731,6.94305 0,-0.99092 0.355673,-1.22215 6.685579,-6.3683 z m 352.310205,0.39636 0.86439,1.21553 -0.072,1.74402 -0.68431,-2.11397 -0.10805,-0.84558 z m -371.052349,1.53262 0.994966,0.46243 0.19809,0.40959 -2.584205,5.19902 -1.872867,3.21059 -1.27408,-0.93146 -0.03602,-0.35013 1.193059,-2.39803 3.381055,-5.60201 z m 372.420979,0.15855 2.23303,2.58961 3.78175,4.49217 -3.85378,0.47564 -2.161,-4.96781 0,-2.58961 z m -379.9439473,0.13212 0.2386,0.0595 -0.2386,6.59953 -3.6601987,-2.27911 2.6652287,-3.97029 0.99497,-0.40959 z m 10.4268143,1.05039 1.116515,0.58132 -0.238618,5.72753 -0.202599,0.46243 -3.579144,2.91991 -2.548177,-1.57226 1.355117,-2.21966 0.873418,-1.69778 1.395632,-2.45087 1.193056,-1.69117 0.6348,-0.0595 z m 18.904221,0.64078 0.315148,0.11892 0.121561,0.99092 0.279118,0.93807 0.355667,0.75971 -0.396183,19.85144 -0.198092,0.0595 0,2.51033 0.157582,0 -0.279143,15.59048 -4.97479,0.11231 -0.517744,0.29066 -0.315132,0.29728 -0.238617,0.52188 -5.929248,-0.0595 0.279147,-13.37083 0.157561,-0.23121 0,-2.21966 -0.121547,-0.0595 0.51773,-17.863 10.786982,-8.23786 z m -16.513623,0.17837 1.472173,0.75971 1.78733,0.99092 0,0.58134 -3.817762,2.74815 0.117056,-5.02066 0.441203,-0.0595 z m -16.1579703,0.29053 0.04053,0.17836 -0.9544387,1.22214 -0.279131,0 0,-0.7597 1.1930457,-0.6408 z m 383.3160353,1.9422 0.6798,1.9422 1.76933,4.88194 1.59371,4.53182 2.20604,4.98102 -1.62977,-2.23948 -2.75076,-3.68622 -1.79633,-2.34517 -0.072,-8.06611 z m -386.219868,0.44923 1.193043,0.64739 -1.868357,2.80101 0,-0.70025 0.07655,-1.98845 0.598768,-0.7597 z m 421.637718,0.19818 0.49523,0.3237 0.22058,0.81916 -0.13504,12.85555 -0.98598,-2.29233 -4.1419,-10.66232 0,-0.5483 2.44013,-0.36995 2.10698,-0.12551 z m -6.0418,0.7465 0.47272,0.54829 0.6798,1.14288 1.90439,5.18581 1.86384,4.43272 -2.34108,-2.93973 -4.41651,-5.78038 -1.45868,-2.0413 2.00342,-0.44921 1.2921,-0.0991 z m -413.72755,0.16514 0.436697,0 3.9393257,2.33858 -0.03602,2.1602 -0.121562,1.10984 -2.624719,4.14204 -4.3805167,-2.45088 0,-2.91991 2.786792,-4.37987 z m 21.40738,0.64741 0.558258,0.99092 0,0.40958 -2.624704,1.92238 -0.477236,0.0595 1.112022,-2.45087 1.43166,-0.93146 z m 399.7576,0.28406 1.25609,2.63585 3.73222,9.3675 -3.52962,1.74401 -0.91845,0 -0.4412,-0.54829 -0.17108,-1.493 0.072,-11.70607 z m 1.55774,1.24195 8.11721,8.87205 -3.7367,1.49298 -0.47273,-0.54831 -3.16045,-7.57063 -0.74733,-2.24609 z m -33.58102,0.25103 1.18855,0.0462 1.085,0.30388 0.34216,0.74649 0.099,1.39389 0.10355,10.66231 -0.71132,-0.89843 -0.74737,-1.34106 -1.66575,-4.38647 -1.32362,-4.13544 -0.47722,-1.2948 0.10355,-0.79934 2.00343,-0.29728 z m 20.38992,0.92487 2.23304,3.01239 5.54655,7.34603 2.08897,2.801 0.036,1.53262 0.25211,1.26838 0.46822,0.79274 0.32417,1.42693 0.036,5.44345 -4.43005,-3.75229 -4.24998,-3.91083 -2.01691,-1.79687 -0.75635,-0.79273 -0.0361,-12.41954 0.36017,-0.36994 0.14406,-0.58134 z m -403.0441293,0.27085 1.5892253,0.81916 0,0.35012 -2.7417583,4.37988 -0.319655,-0.17177 -0.08103,-3.15773 1.553213,-2.21966 z m 10.8635103,0.0595 -0.198093,0.93807 -0.55826,0.17176 -0.04051,-0.46903 0.796862,-0.6408 z m 375.252799,0.38976 3.36305,7.66973 0.30615,1.34766 0.0315,3.09166 -3.05241,1.59208 -0.6483,-0.94468 0,-12.75645 z m -370.399545,0.72007 0.0089,7.28657 -0.256612,10.02151 -0.225103,0.16515 -0.03602,2.18002 0.220611,0 -0.292644,13.56241 -2.453639,0.0595 -0.148564,-0.1123 0,-0.81916 0.225106,-0.27085 -0.04053,-0.5417 -0.148561,-0.33032 -0.36917,0.0529 -0.148574,0.27746 -0.07204,0.3237 -0.261102,0.27085 -0.22512,0.27746 -0.55375,0 -0.04053,-0.27746 0.225116,-0.27085 0.112546,-0.16515 0,-0.43601 -0.04051,-0.3237 -0.333166,-0.1123 -0.297121,0 -0.261138,0.218 -0.03602,0.27745 0.184593,0.27086 0,0.27085 -0.297138,0 -0.369171,0.27085 -0.225103,0.38317 0,0.60114 -0.441203,0 0.184592,-9.2618 0.297121,-0.0529 0.03602,-2.45088 -0.184578,-0.1123 0.297138,-12.41954 0.594273,-1.39389 0.238618,-1.34766 0.436694,-2.27251 0.319655,-0.35012 4.37602,-3.4484 z m -13.37119,0.11892 0.319655,0 1.553211,0.99092 -3.106419,2.27911 -0.11707,-0.46903 1.350623,-2.801 z m 6.568542,0 0.07653,0.87201 -0.634787,0.7597 -0.756349,-0.46243 1.314608,-1.16928 z m 378.629343,0.007 2.07096,2.54336 0.10354,3.58713 -2.1745,-6.13049 z m -12.66435,1.76384 2.62922,3.01239 0,36.20163 -2.98938,0 -0.18008,-38.15704 0.39619,-0.4228 0.14405,-0.63418 z m -368.630223,0.38975 0.954438,0.87201 -8.1577683,4.84891 7.2033303,-5.72092 z m -8.5989713,0.17177 0,2.21966 -0.157566,0.7597 -0.756348,0.23122 -0.675329,-0.52189 1.589243,-2.68869 z m 392.6443143,0.71347 2.24204,2.79439 3.02089,2.98597 -3.39456,1.54583 -0.47723,-0.0991 -1.42715,-3.09167 0.0361,-4.13543 z m -399.64504,0.80594 0.477204,0 1.350626,0.64079 2.0709547,1.51941 -2.2285207,3.09829 -1.670264,0.99091 0,-6.2494 z m 17.468068,1.51941 0.297121,0.27085 0.22061,1.41371 0.594274,1.30802 -0.333153,12.69699 -0.184579,0 -0.03602,2.61604 0.220597,0 -0.220597,9.4798 -11.0301073,-0.0595 0.103556,-6.7845 0.171076,0.0265 0.08553,-2.76797 -0.162075,-0.0265 0.247623,-9.84314 0.225103,-1.51941 0.333153,-0.76631 0.112546,-0.70686 9.3553373,-5.33775 z m 369.850282,0.21801 2.3771,3.09166 2.27356,2.98598 1.22456,1.54584 1.12101,1.2948 -0.0361,0.94467 0.10356,1.09663 0.0675,0.50206 0.27012,0.4426 0.23863,14.35514 -0.1711,-0.0528 0,2.14698 0.23861,-0.0529 0.0361,6.42776 -2.27805,-0.0991 -0.063,3.13792 -0.34216,0 0.0315,-3.18416 -3.11993,-0.15194 -0.0361,1.2948 -1.83236,-0.0529 -0.10353,-35.67314 z m -382.7442393,1.01073 0.51773,0.35013 -1.350622,1.05037 0.832892,-1.4005 z m 430.2141593,0.83237 0.17107,0.19819 0.13508,13.351 -0.4412,-0.59455 -2.37711,-5.68129 -1.7648,-4.83568 -0.0316,-0.89183 0.71133,-0.6474 1.39114,-0.44922 2.20601,-0.44922 z m 1.15705,0.99753 0.74733,1.2948 4.27698,10.06115 -0.33765,0.54832 -4.07437,2.49711 -0.67982,-0.65399 0.0675,-13.74738 z m -7.23487,0.99752 0.54476,0 0.67982,1.09663 1.9359,5.12636 1.93587,4.63751 -3.19197,-3.44181 -3.87178,-4.13543 -1.18854,-1.53924 0.33765,-0.44921 2.81829,-1.29481 z m -29.02939,0.0991 0.37369,1.19571 -0.40971,0.24443 0.0361,-1.44014 z m 37.96153,0.29727 8.08124,7.27336 -3.97086,2.54336 -0.44117,-0.84558 -3.66921,-8.97114 z m -31.85221,0.0462 0.34216,0.70024 -0.10355,11.50789 -0.10805,0.28407 -0.36917,-0.5285 -2.88582,-7.02892 -1.01748,-2.58961 0.0676,-0.70025 3.60165,-1.49299 0.47272,-0.15193 z m 1.56222,0.79273 3.98884,3.80513 0.0946,4.58466 -4.0834,-8.38978 z m -0.33766,0.49547 4.37153,9.86295 -0.0495,1.69117 -3.88979,1.90257 -0.045,-1.19571 -0.4322,-1.55245 0.045,-10.70853 z m -6.96019,0.95788 0.64378,0 0.57626,0.89844 0.85091,2.74153 2.4086,6.07765 -4.85324,-4.88193 0,-4.58466 0.37369,-0.25103 z m -0.91843,0.35012 0,3.83156 -2.3771,-2.53675 2.3771,-1.29481 z m -229.57453,0.33692 0.2251,0.19158 0.072,0.19157 0.18909,0.19158 -0.0585,6.72504 -0.48172,0 0.054,-7.29977 z m 255.02925,1.31462 10.18372,10.85388 -0.0495,0.91165 0.14407,1.12964 0.48173,0.77292 -0.0495,2.82082 -1.10301,-0.70686 -6.43799,-4.43932 -3.79071,-3.237 0,-6.97608 0.47721,-0.4228 0.14403,-0.70685 z m -12.67784,1.05698 4.56511,4.36664 -3.74571,2.04792 -0.8194,-1.41372 0,-5.00084 z m -15.93736,0.9777 1.32813,1.64493 1.25608,1.34105 0.47271,0.44921 0.37368,24.3172 -1.86836,-0.0991 0.0676,-2.58961 -0.33766,-0.44922 -0.44121,-0.29727 -1.35963,-0.1057 -0.0676,-6.62596 0.17109,-0.0991 -0.10355,-1.79026 -0.13506,0 0,-14.05126 0.27012,-0.25103 0.30614,-0.70025 0.0675,-0.69365 z m 50.32424,1.64493 0.51776,0.47564 -0.13509,0.70686 0.0135,0.62099 0.20709,0.68704 0.11258,11.25683 -4.72271,-10.25931 0,-0.40298 0.0676,-0.49546 3.93931,-2.58961 z m 1.36414,1.46657 1.98544,3.71925 1.84582,3.89102 1.23808,2.57639 -4.46606,2.70851 -0.45922,0.0397 -0.26113,-11.92408 0.14407,-0.37655 -0.0271,-0.63418 z m 1.49469,0.71346 4.9568,4.22793 2.88133,2.28572 -3.48463,2.49712 -0.69332,-1.35426 -3.66018,-7.65651 z m -32.05932,0.35672 0.47273,0.40299 -0.0316,12.00335 -0.67981,-0.94468 -3.73673,-8.76635 0.10354,-0.35012 3.8718,-2.34519 z m -17.28797,0.33692 2.83632,2.74816 3.34053,3.21719 0.20711,1.38068 0.0495,0.88522 0.17556,0.51528 0.21161,0.3237 -0.0495,8.47567 -0.18907,0 -0.0361,1.9356 0.18009,0.0198 -0.0495,4.21471 -3.50712,-0.17836 -0.33314,-0.63419 -0.48173,-0.4228 -0.48173,0.2114 -0.38267,0.48885 -1.24707,-0.13873 -0.24312,-23.0422 z m -229.84013,0.033 0.0181,2.12717 -0.42769,0 0.0225,-1.52601 0.16658,-0.19159 0.22059,-0.40957 z m 343.58512,0.0793 0.0316,0.67384 -0.49072,1.35424 -1.7873,2.583 -3.62868,3.38234 3.83125,-6.13049 2.04395,-1.86293 z m -72.58698,0.40297 0.54473,0.14534 4.03838,9.32125 -3.42608,-2.6953 -4.7902,-4.23453 3.63317,-2.53676 z m -21.66401,0.39637 4.11038,3.38895 0.0991,5.03388 -4.20943,-8.42283 z m -0.94993,0.0529 0.30612,0.14533 2.24203,4.0892 2.3096,5.43024 -4.48407,2.6887 -0.44124,-0.6474 0.0316,-10.81425 0.0361,-0.89182 z m 92.29258,1.43354 -1.58473,2.11397 -2.7958,3.38233 -2.90834,4.09581 -0.081,-3.05864 0.28361,-0.62758 0.12608,-0.72668 2.26453,-1.67136 2.50763,-1.86292 2.18801,-1.64493 z m -98.34788,0.35012 1.10301,2.39803 3.11993,6.69201 -3.11993,-2.39802 -1.44067,-1.33444 -0.0495,-5.07351 0.38719,-0.28407 z m -0.86439,0.35013 0.045,4.93479 -3.0704,-3.03223 3.0254,-1.90256 z m 12.48873,1.45336 2.9894,2.53675 0.40521,0.70025 0.036,0.19819 -3.0254,1.9422 -0.33764,-0.49547 -0.0676,-4.88192 z m 12.67338,0.93145 1.93137,1.8167 4.40755,3.84476 3.66018,3.0058 -0.11702,0.9711 -0.0271,0.63419 0.22961,0.80595 0.37368,0.46242 -0.0271,0.2114 -5.15937,-3.1313 -6.10934,-4.05618 0,-2.57638 0.43219,-0.4228 0.23412,-0.46903 0.14407,-0.67384 0.0271,-0.42279 z m 77.1296,0.007 0.0539,8.64082 -0.54026,0.36995 -0.0721,-6.65898 0.28821,-0.5285 0.0359,-1.32122 0.23414,-0.50207 z m -1.06249,0.29067 -0.14411,1.10983 0.0721,0.95129 0,6.97608 -4.5741,1.95541 -3.60164,1.47978 -0.97253,0.47563 0,-0.58133 0,-0.3171 0.25214,-0.42279 0.10808,-0.63419 0.10803,-1.00413 0.10804,-1.00413 4.50205,-4.70358 4.14194,-4.28077 z m -54.51564,0.92486 0.31963,0.46904 -0.0585,9.51283 -0.34664,0.33691 -3.94833,-7.52438 0.14407,-0.38316 3.8898,-2.41124 z m -50.74744,0.62097 3.98433,3.24362 -0.0495,13.39064 -4.5606,-0.23122 0.0135,-4.20811 0.16657,0.0132 0.0135,-1.98844 -0.17109,0 0.072,-8.44925 0.20711,-0.0198 0.31964,-0.79273 0.004,-0.95789 z m 52.10254,0.64741 5.15941,7.65652 -4.9568,2.91331 -0.46374,-0.54832 -0.054,-0.88521 -0.0317,-8.15858 0.2611,-0.46904 0.0856,-0.50868 z m 42.04038,0.2114 -7.8696,10.74159 -0.37369,-0.0397 -0.0271,-4.1024 0.17112,-0.42279 0.20257,-0.68043 0.14407,-0.54832 1.75581,-1.1825 2.48061,-1.26837 3.51611,-2.49713 z m 0.74738,0 0.22961,0.68044 0,4.01653 -1.32361,1.35426 -2.7688,1.9422 -2.33207,1.69117 0,-0.59455 6.19487,-9.09005 z m -345.46252,0.35013 1.90888,0.0265 0.0225,1.63172 -0.2251,0.218 -1.68829,0 -0.018,-1.87614 z m 2.22852,0.0529 3.04341,0.1057 -0.0361,1.93559 -0.44571,0 0.018,-0.5417 -0.27913,-0.24442 -0.16658,0.0265 -0.13055,0.21801 -0.14858,0.5417 -1.83684,-0.0265 -0.0181,-2.01486 z m 302.37763,0.0661 1.81434,1.35426 2.50765,1.77044 2.70577,1.6119 -3.05242,1.73081 -3.97534,-6.46741 z m -33.09927,0.0132 0.57625,0.2114 -0.045,10.0083 -0.28814,-0.2114 -1.15254,-1.97523 -2.69227,-5.42365 0.28815,-0.49545 0.14407,-0.28407 2.64272,-1.69118 0.52675,-0.13872 z m -265.99634,0.16515 2.63822,0.0529 0,1.96203 -2.5977,-0.218 -0.0405,-1.79688 z m 2.93536,0.16515 1.85486,0.10571 0.14856,0.27746 -0.072,1.46656 -0.14857,0.218 -1.78282,-0.218 0,-1.84973 z m 264.43411,0.37656 3.08393,4.39308 1.87286,3.46822 -4.61012,2.74815 -0.66183,-0.54831 0.0271,-9.09004 0.14407,-0.21139 0.14408,-0.75971 z m 0.95444,0.25103 2.10244,1.60529 2.5617,1.69117 0.0317,3.38235 -0.20257,0.0859 -1.12553,-2.02808 -3.36756,-4.7366 z m 22.33032,0.2114 0.40069,0 3.39905,7.57063 -2.59317,-1.73741 -3.28204,-1.90257 -1.81433,-1.35426 3.8898,-2.57639 z m -41.02295,1.38729 3.97083,3.19076 1.41364,1.16268 0.0495,0.8654 0.0675,1.13625 0.13956,0.49547 0.52675,0.32371 0.40521,-0.0595 0.22058,-0.80595 -0.0135,-0.99752 0.27914,0.14533 0.6483,0.47564 3.9393,2.23948 -0.0361,5.4831 -11.54335,-0.6474 -0.0675,-13.00748 z m 11.13814,0.60116 0.30612,0.0462 0.13509,0.50206 -0.0675,4.18168 -3.60165,-2.29234 3.22797,-2.43765 z m 1.12101,0.39636 0.61229,1.19572 1.69728,3.19076 1.18857,2.54336 -1.25611,-0.85219 -2.17449,-1.39389 -0.0675,-4.68376 z m 11.61986,0.82577 2.70577,1.98845 -2.53468,1.52602 -0.17109,-0.25764 0,-3.25683 z m 56.50111,0.84558 0,5.62844 -0.37369,0 -0.8644,0.16515 -0.6933,-0.21139 -1.81431,-0.50868 0,-0.50207 3.7457,-4.57145 z m -1.35512,0.4228 -3.60169,3.93726 -2.33207,-0.76631 5.93376,-3.17095 z m -21.43442,0.17176 0.0271,6.76468 -0.22961,0.0397 -3.0569,-4.69035 -0.0271,-0.4228 3.2865,-1.69116 z m -21.12373,0.75971 4.49757,2.87366 5.04231,2.88028 0.0856,0.37655 0.22961,0.54832 -0.54477,0 -1.15254,-0.37656 -2.01692,-0.97111 -2.44913,-0.89182 -2.27806,-1.22214 -2.04395,-0.9777 0.0856,-0.29068 0.22961,-0.63418 0.22961,-0.4228 0.0855,-0.42279 0,-0.46903 z m 22.50588,0.0859 2.12948,2.02808 1.98993,1.73741 -2.30509,1.05699 -2.07542,0.63418 -0.0271,-4.39969 0.20259,-0.38315 0.0855,-0.67382 z m -31.46503,0.38315 -0.0585,6.80431 -2.96687,-4.10239 0.0585,-0.93147 2.96686,-1.77045 z m 63.02013,0.29067 0.0497,0.89844 0.25661,0.82576 -0.10352,1.26837 -3.25949,1.19573 -1.67929,0.67381 -1.98543,-0.22461 6.72164,-4.6375 z m -29.02041,0.0859 3.51608,2.16021 -1.00844,0.42279 -2.50764,-2.583 z m -32.61755,0.59455 0.26108,0 3.31352,3.08506 1.6703,2.07434 -4.98382,1.98184 -0.57627,-0.79935 0,-5.54254 0.31519,-0.79935 z m 24.32019,0.0859 2.8228,4.94139 -0.45918,-0.0397 -1.96292,-0.59455 -2.62023,-1.09662 -1.7558,-0.63419 3.97533,-2.57639 z m 48.34781,0.80593 -0.054,4.78285 -0.0991,0.48885 -0.15309,0.0397 0,-5.19904 0.30617,-0.1123 z m -0.72937,0.32372 -0.0272,5.02066 -3.16951,-0.86541 -0.82832,-0.52849 0.90038,-1.10983 1.08049,-0.79274 2.04396,-1.72419 z m -77.78688,0.17835 0.40521,0.33693 -0.0317,3.71925 -3.91684,-1.47978 3.54315,-2.5764 z m 76.46327,0.0132 -4.03381,2.85385 -1.94494,-0.26425 5.97875,-2.5896 z m -27.93984,0.15854 1.72876,0.46243 1.32366,0.50867 -0.74733,0.67383 -2.99843,-1.47978 0.69334,-0.16515 z m -39.04205,0.0793 2.62023,1.52603 -0.0271,1.43352 -1.38663,-1.30801 -1.20656,-1.65154 z m -8.61695,0.29728 3.11095,4.82248 -1.69731,-0.59455 -1.35515,-0.50867 -0.0585,-3.71926 z m -11.75045,1.01735 2.57972,1.44674 2.58416,1.49299 3.22348,1.09662 2.7868,0.84558 0.099,1.19572 -10.93105,-0.69365 -0.37365,-0.30389 0.0317,-5.08011 z m 23.50539,0.42279 1.23804,0.72007 -1.23804,0.75971 0,-1.47978 z m 33.04972,0.21139 0.26113,0.33692 -0.26113,2.74815 -1.89988,-1.98845 1.89988,-1.09662 z m 1.44072,0.79934 0.17106,0.2114 0.09,2.41125 -0.17558,0.0462 -0.11255,-0.34352 -0.26113,-0.12552 0.0271,-1.51942 0.17559,-0.21139 0.0855,-0.46903 z m 1.03547,0.25765 1.35511,0.50867 -1.15254,1.47978 -0.20257,-0.59456 0,-1.39389 z m -32.52756,0.25103 7.08628,2.74815 -1.9584,0.33691 -3.91682,0.2114 -1.4992,-0.2114 -1.87286,-2.19323 2.161,-0.89183 z m 52.16558,0.0462 0.18009,0.63419 0,1.26837 -0.54026,0.68704 -2.34106,-0.10569 -2.08901,-0.58135 4.79024,-1.90256 z m 1.3326,0 1.94494,0.31709 -1.94494,2.11396 -0.39615,-0.58133 -0.072,-1.16269 0.4682,-0.68703 z m -27.30959,0.37654 0.69334,0 1.61174,1.69118 -1.44068,-0.0859 -2.27356,-0.21139 -1.52618,-0.12551 2.93534,-1.26839 z m 31.0193,0.89183 1.29662,0.3171 1.80079,0.73989 -2.26899,0.10569 -1.62081,0.15855 -1.18848,0 1.36866,-1.26838 0.61221,-0.0529 z m -61.50286,0.0397 0.57626,0.29727 0.0317,1.3939 -1.49918,-0.0859 -1.58475,-0.33691 2.47616,-1.26837 z m 1.44065,0.7597 1.18406,1.26838 -1.15254,0 -0.0316,-1.26838 z m -11.72792,0.9711 1.2966,0.63419 2.42212,0.72007 -3.74572,-0.16515 0.0271,-1.18911 z m 37.86249,0.92487 1.6928,0.15853 -1.26058,0.15856 -1.22457,0.10569 -1.15254,-0.0529 -0.46822,-0.0529 -0.036,-0.26424 2.44911,-0.0529 z m 14.66779,0.13211 0.48618,0.46903 1.72887,0.50868 0,0.46243 0.11701,0.46243 0.22963,0.4228 0,0.59454 -0.20258,0.17176 -0.25667,0.2114 0.0585,0.79934 -7.49141,-0.25102 0,-0.72008 0.25662,-0.46243 0.10353,-1.12304 0.15761,-0.56813 0.22958,-0.46903 0.8059,-0.29728 3.77722,-0.2114 z m 24.28866,0.12552 0.009,5.01406 -1.10755,0.91824 -8.25227,-0.74648 0.10803,-1.26839 0.28817,-0.42278 0.25214,-0.79274 0.10799,-0.68704 -0.0359,-0.47564 0,-0.52849 1.5487,-0.15855 2.19699,-0.31709 2.59324,-0.26425 2.29156,-0.27085 z m -14.12301,0.58134 3.93484,0.38977 -0.0359,1.18248 0.21155,0.79273 0.18916,0.71347 0.0855,1.42033 -4.9073,-0.20481 -1.17054,-0.29726 -0.86887,-0.74648 -0.0991,-1.42033 -0.91845,-0.37656 0.1081,-0.63418 0.2386,-0.42939 0.9184,0 1.11205,-0.12553 1.20201,-0.26424 z m -40.27556,0.35013 -0.0585,0.76631 -2.65172,-0.0859 -1.12552,-0.38317 3.83578,-0.29726 z m 22.06916,0.0462 0.20263,0.37656 0,0.46903 -0.22962,0.25103 -0.6933,0.46905 -0.28818,0.33692 0,0.37653 -5.12785,-0.25103 -1.78732,-0.17176 -0.17109,-0.37653 -0.31963,-0.21142 -0.31515,-0.25764 2.82279,-0.12551 2.53471,-0.29727 2.24652,-0.4228 1.12549,-0.16516 z m -13.54224,0.033 2.5572,0.36995 0.2161,0.63419 0,0.2114 -4.71819,-0.26425 0.36017,-0.42279 0.39619,-0.4228 0.43221,0.2114 0.43219,-0.1057 0.32413,-0.2114 z m 15.35661,0.38977 0.17558,0.29727 -0.0317,0.71347 -0.14407,0.29726 -0.20257,0 0,-1.01073 0.20257,-0.29727 z m -276.82383,32.90516 -0.28813,0.30388 -0.0405,0.35674 1.95839,-0.0595 -0.92292,2.51692 -0.0585,1.18252 -17.1124,-0.80598 -2.33658,0.0859 -0.2026,0.46243 -0.027,0.38315 0.28814,0.0859 -0.4052,1.18248 -0.054,0.72008 -0.31965,0.67381 -0.37367,0.46905 -0.37817,0.46904 -2.01243,0.24441 -1.03999,3.2172 -1.15253,0.50867 -0.63029,0.0793 -0.2341,0.46904 -0.25663,0.63419 -0.0315,0.84559 0.8644,1.39388 0.89592,1.30802 0.2296,0.80594 0.34666,1.44014 0.60328,0.50207 2.04845,0.68044 1.094,0.16515 6.30741,0.0462 7.1493,0.50866 6.53703,0.63419 9.39584,0.46243 8.00919,0.21139 7.98219,-0.63418 0.2296,-1.30802 -0.027,-1.65153 0.28813,-0.67383 0.14407,-0.25765 0.25661,0 0,-0.6738 -0.77886,-0.12553 -0.0495,-3.73245 -1.67027,-0.0859 -0.063,-2.81422 0.32415,-0.29727 0.49074,-0.11893 -0.063,-1.13626 -0.52674,-0.33028 -0.12156,-0.86541 -0.40969,-0.6276 -0.44571,0.0265 -0.14406,0.11894 -1.14353,-1.07022 -2.36359,-0.0661 -0.20259,-0.11893 -2.97588,-0.0595 -0.081,0.42279 -3.38107,0 -0.4457,-0.17838 -0.49073,-0.54168 -0.30614,-0.7465 -0.2206,-1.94221 -0.49073,-1.44014 0.12156,-0.35673 1.34612,0.0595 0,-0.65399 -0.61228,0 -12.02055,-0.30388 z m 300.2932,23.83494 -6.12286,0.52849 0,1.16269 -0.0721,0.73988 -1.36861,-0.63419 -1.29661,-0.95128 -1.15255,0 -0.86439,0.21139 -0.79235,0.2114 -0.50427,0.4228 -0.21607,0.95128 0.4322,1.26841 0.79235,4.12223 1.51273,4.33362 0.21608,1.26835 5.40251,0.52849 6.19487,0.2114 7.99561,0.84561 9.29227,0.6342 8.7881,0.42276 9.58039,0.2114 2.61125,0.19158 0.51777,-1.14944 1.02195,-1.14949 1.46767,-2.80759 0.22057,-4.06938 0.41872,-1.73081 0.51327,-1.59869 -1.00399,-0.38978 -0.47271,-0.61437 -1.04448,-0.95129 -0.8644,-0.26424 -1.18858,0.21139 -4.12834,0.62101 -2.78682,0.33028 -3.4666,0.49546 -0.85537,-1.4996 -1.18858,-0.10571 -7.49148,-0.31708 -11.02106,-1.05698 -9.07613,-0.6342 z"
       id="path3307"
       style="fill:#000000;fill-opacity:1;stroke:none;display:inline" />
    <flowRoot
       id="flowRoot26936"
       xml:space="preserve"
       style="font-size:40px;font-style:normal;font-weight:normal;line-height:125%;letter-spacing:0px;word-spacing:0px;fill:#000000;fill-opacity:1;stroke:none;font-family:Sans"><flowRegion
         id="flowRegion26938"><rect
           width="259.30002"
           height="138.29335"
           x="0"
           y="1049.1075"
           id="rect26940" /></flowRegion><flowPara
         id="flowPara26942" /></flowRoot>  </g>
</svg>
